<svg viewBox="0 0 2500.1 2500" xmlns="http://www.w3.org/2000/svg" width="2500" height="2500"><path d="M2215.6 2500H284.4C127.3 2500 0 2372.7 0 2215.6V284.4C0 127.3 127.3 0 284.4 0h1931.3c157 0 284.4 127.3 284.4 284.4v1931.3c-.1 157-127.4 284.3-284.5 284.3z" fill="#fff"/><path d="M1259.6 190.4l47.6 89.4c10.7 16.5 22.3 31.1 35.9 44.7 40 39.5 77.3 81.7 111.6 126.3 80.6 105.8 135 223.4 173.8 350.6 23.3 77.6 35.9 157.4 36.9 237.9 3.9 240.9-78.7 447.7-245.1 619.6-27 27.2-56.3 52.3-87.5 74.7-16.5 0-24.3-12.6-31.1-24.3-12.4-21.6-20.6-45.3-24.3-69.9-5.9-29.2-9.7-58.3-7.8-88.3v-13.6c-1.3-3.1-15.8-1340.2-10-1347.1z" fill="#599636"/><path d="M1259.6 187.5c-1.9-3.9-3.9-1-5.9 1 1 19.5-5.9 36.9-16.5 53.5-11.7 16.5-27.2 29.2-42.8 42.8-86.3 74.7-154.3 165.1-208.7 266.1C913.2 686.8 875.9 832.5 865.4 986c-4.8 55.3 17.5 250.5 35 306.8 47.6 149.6 133 274.9 243.8 383.6 27.2 26.2 56.3 50.5 86.3 73.9 8.8 0 9.7-7.8 11.7-13.6 3.9-12.4 6.8-25 8.8-37.8l19.5-145.6z" fill="#6cac48"/><path d="M1307.2 1792.6c1.9-22.3 12.6-40.7 24.3-59.2-11.7-4.8-20.4-14.5-27.2-25.2-5.9-10.2-10.7-20.9-14.5-32.1-13.6-40.7-16.5-83.6-20.4-125.2v-25.2c-4.8 3.9-5.9 36.9-5.9 41.8-2.8 44.1-8.7 87.8-17.5 131.1-2.9 17.5-4.8 35-15.6 50.5 0 1.9 0 3.9 1 6.8 17.5 51.5 22.3 103.9 25.2 157.4v19.5c0 23.3-1 18.4 18.4 26.2 7.8 2.9 16.5 3.9 24.3 9.7 5.9 0 6.8-4.8 6.8-8.8l-2.9-32.1v-89.4c-.9-15.6 2-31.1 4-45.8z" fill="#c2bfbf"/><path d="M479.33 2226.45v43.194c0 1.736 0 3.472.307 5.106.51 5.106 3.676 8.271 8.27 9.7 4.29 1.124 8.68 1.94 13.071 2.553 2.553.307 3.37 1.43 3.676 4.187.306 9.7-.51 10.824-9.905 10.211-21.852-1.123-43.806-1.43-65.658 0h-2.042c-6.842.307-7.352-.306-7.352-7.148 0-1.123.306-2.552.306-3.676 0-2.042 1.43-3.165 3.37-3.165 4.595-.51 8.781-1.736 13.07-2.553 5.922-1.43 9.394-5.105 9.905-11.13.817-6.535.817-13.377.817-19.912l.306-76.176c.204-4.493-2.246-8.68-6.229-10.824-5.105-2.859-10.62-5.105-16.236-6.841-1.736-.51-3.37-.817-4.799-1.736-4.187-2.042-4.289-5.719-.306-7.965 1.43-.817 3.165-1.43 4.799-1.736a260.072 260.072 0 0 0 50.546-12.764c3.37-1.123 4.288-.817 4.595 2.553.306 2.042 0 4.595-.307 6.535-.51 3.676-.51 7.352-.51 10.824 0 1.43.306 2.86 1.736 3.676s2.859 0 4.186-.817c5.923-4.595 11.948-8.782 18.483-12.458 9.394-5.105 19.299-9.7 30.123-11.13 13.07-1.736 24.405 1.736 34.412 10.211 4.084 3.676 7.76 7.863 10.824 12.458 2.859 4.187 3.165 4.289 6.841 1.43 10.824-7.965 22.159-15.01 34.412-20.219 12.764-5.412 25.834-6.228 38.905-1.736 13.377 4.8 22.465 14.194 27.877 26.958 4.595 10.211 6.535 20.831 6.535 31.86v76.175c0 5.106 2.042 8.271 7.148 10.824 5.412 2.042 11.334 3.165 17.052 4.289 3.676.817 3.676.817 3.676 4.595-.51 9.394-1.43 9.905-10.517 9.394a588.168 588.168 0 0 0-68.415 0c-4.595.306-4.595.306-4.8-4.289v-1.43c-.306-7.658-.306-7.658 7.148-9.394l7.352-2.042c5.106-1.225 8.782-5.82 8.782-11.13l.817-21.342-.51-55.65c-.205-5.004-1.226-9.906-3.166-14.5-7.148-17.36-22.771-23.589-37.782-21.853-11.334 1.123-21.341 5.719-30.736 12.254-2.042 1.43-3.37 3.165-3.165 5.922 2.553 18.176.817 36.352 1.123 54.528v39.518c0 7.148 2.86 10.517 9.7 12.253l13.071 2.86c2.042.306 3.166 1.123 3.166 3.37v2.041c-.307 7.965-.817 8.271-8.782 8.271-22.771-1.123-45.44-.816-67.905 0-7.658.307-8.27-.51-7.965-8.27.307-4.596.817-4.8 5.106-5.719l9.394-1.736c8.272-1.736 11.335-4.8 11.948-13.683l.816-19.095-.51-57.08c-.51-7.149-2.042-13.888-5.923-20.423-5.718-10.518-14.602-15.93-26.753-16.44-12.254-.817-22.975 3.676-33.289 9.394-7.148 4.187-10.21 9.088-9.7 17.36v41.457zm535.375 1.737v40.028c0 2.859.205 5.718.511 8.475.204 3.88 3.063 7.148 6.842 7.965 4.901 1.43 9.904 2.246 15.01 2.553 2.86.306 3.37 1.43 3.676 3.676v2.042c-.306 9.905-1.43 11.13-11.13 10.518-21.648-1.43-43.194-1.124-64.74 0l-8.27.306c-1.736 0-2.043-.817-2.553-2.042a29.428 29.428 0 0 1 0-11.947c.306-1.736 1.43-2.043 3.165-2.553 4.187-.51 7.659-1.43 11.641-2.043 7.148-1.735 9.7-4.595 9.905-11.947l.817-23.894v-69.947c0-5.106-2.042-8.271-6.535-10.518-5.106-2.859-10.518-4.799-16.236-6.841-1.736-.51-3.37-1.123-4.8-2.042-3.676-2.553-4.186-6.23-.51-9.088 1.634-1.328 3.574-2.145 5.718-2.247 18.176-2.859 35.842-6.841 52.894-13.683 2.043-.817 2.86-.306 3.676 1.43s1.124 3.676.817 5.718l-.817 13.377c0 1.736-.816 4.186.511 4.799 1.736 1.123 2.86-1.43 4.289-2.042a123.8 123.8 0 0 1 27.57-17.564c8.782-4.186 17.87-6.841 28.081-6.228 19.095 1.123 32.676 10.823 41.458 27.57 4.595 8.782 6.535 18.482 7.352 28.387l.817 20.831.306 62.8c.306 4.799 2.042 7.964 6.842 9.7a98.384 98.384 0 0 0 15.316 3.676c4.595.51 4.8 1.43 5.106 5.718v1.43c-.51 9.7-1.123 9.905-10.824 9.394a600.917 600.917 0 0 0-63.616 0c-2.86.306-5.718 0-8.271.306-1.736 0-2.86-.306-3.166-2.042-.51-3.676-1.123-7.352-.306-11.334.306-1.736 1.123-2.553 3.166-2.86l13.07-2.042c4.595-1.123 7.148-4.186 7.658-8.27l.511-7.965-.306-59.43c0-6.841-.307-13.683-1.736-20.422-3.37-14.602-14.5-24.916-29.51-26.448-13.071-1.43-24.916 2.043-35.842 9.088-5.412 3.37-7.659 8.272-7.659 14.194v42.887c0-.817 0-.817.307-.817z" fill="#47474a"/><path d="M1846.82 2147.824c-3.166-20.729-10.824-39.21-24.201-55.447-11.641-14.295-26.652-25.426-43.806-32.37-17.87-7.351-36.965-9.7-56.264-10.21-7.965-.307-116.51 1.429-124.475 0-2.043-.307-3.37.306-4.595 2.042-1.43 2.042-2.86 4.288-3.676 6.535-3.37 7.658-3.37 7.148 4.799 8.27 6.841 1.124 13.377 1.737 19.912 3.677 5.922 2.042 10.211 5.412 11.64 11.947.511 3.166 1.124 103.134 1.124 149.697l-1.123 33.289c-.307 2.552-.511 5.105-1.43 7.352-1.123 3.37-3.166 6.229-6.535 7.658-3.778 1.736-7.76 2.86-11.947 3.166-7.659.816-8.782 1.123-11.335 9.7l-.817 3.166c-.51 3.676-.306 4.288 3.37 4.288l84.957.817 33.29-.51 22.974-2.86c26.141-4.799 49.423-15.623 69.335-32.982 11.334-10.007 20.626-22.158 27.264-35.841 7.964-15.93 11.334-33.289 12.253-50.852 1.532-10.11 1.021-20.32-.715-30.532zm-41.152 40.335c-1.123 18.176-4.8 35.841-14.193 51.669-11.948 20.728-29 35.228-52.588 40.334-10.212 2.042-20.423 3.165-31.145 1.736-7.658-.817-15.01-1.736-22.158-4.289-12.764-4.595-17.36-12.458-17.563-24.915l-.307-171.345c0-10.211 4.595-12.458 11.947-12.764 11.13-.817 22.465-.51 33.493.51 11.845 1.124 23.384 3.983 34.412 8.272 8.17 3.37 15.725 8.067 22.465 13.887 15.317 13.07 25.528 29.51 31.144 48.81 4.595 15.623 5.412 31.552 4.595 47.482zm277.337 27.876c0-1.736 0-3.165-.306-4.799-2.553-15.623-10.824-27.57-23.588-36.658-8.271-5.923-17.563-9.905-27.264-12.764-1.736-.51-3.165-1.124-4.8-1.43.307-1.43 1.124-1.736 2.043-2.042 5.718-2.86 11.13-5.923 15.93-10.211 8.781-7.352 14.602-16.44 17.563-27.57 1.736-5.923 1.736-11.948 1.123-18.177-.919-14.806-8.577-28.387-20.729-36.964-13.07-9.701-28.387-13.683-44.316-13.888-30.736-.51-61.676 0-92.31 0-8.782 0-17.563.51-26.753-.817-1.736-.306-4.187-.816-5.412 1.124-2.043 3.676-4.596 7.352-5.412 11.64-.307 2.043.306 3.166 2.552 3.37l19.606 2.86c7.658 1.123 13.07 5.411 13.683 12.253.51 4.697.817 9.496.817 14.193l-.51 53.099-.307 105.074c0 6.228-.817 12.253-2.042 18.482-.613 4.084-3.472 7.352-7.352 8.475-5.719 1.736-11.13 3.37-17.053 3.37-3.268-.306-6.331 1.736-7.352 4.8-1.123 2.552-2.042 5.411-2.553 7.964-.51 3.37.306 4.595 3.676 4.187 2.553-.307 96.292 2.042 113.958.306 10.517-1.123 20.83-2.553 31.246-5.718 17.87-5.719 34.412-13.888 47.482-27.877 10.824-11.335 17.053-25.018 17.564-40.947.816-3.676.816-7.352.816-11.335zm-137.851-116.51l.817-22.77c0-4.29 1.735-6.23 5.922-7.149 6.842-1.43 13.683-.817 20.423-.51 6.841.51 13.376 1.43 20.218 3.37 12.458 3.675 22.158 10.823 27.877 22.77 2.552 5.412 3.982 11.335 3.982 17.36.306 7.964-.306 15.623-3.37 23.281-4.8 10.518-12.458 17.36-23.588 19.3-11.13 2.042-42.58 1.123-47.482 1.123-4.289 0-4.595-.51-4.595-4.8v-26.753c-.715-8.271-.715-16.644-.306-25.018zm92.31 152.862c-4.8 12.764-13.684 21.648-26.141 26.448-6.842 2.552-13.684 4.186-20.831 3.676-8.782-.307-17.564 0-26.448-1.736-11.947-2.553-17.359-13.888-18.176-22.159-1.43-14.5-.51-29.306-.816-40.028v-37.475c0-4.595.51-5.923 5.412-5.923l26.753.307 18.176 2.042c12.764 2.86 24.405 7.658 33.493 17.563 7.352 7.965 11.334 17.564 12.253 28.081.817 9.905.307 19.606-3.37 29z" fill="#c2bfbf"/><path d="M1315.529 2166.817l7.352 1.123c7.964.307 17.359-2.552 20.218-13.683a29.258 29.258 0 0 0 0-16.235c-1.736 0-2.553 1.43-3.37 2.042-4.288 3.37-9.088 5.412-14.193 5.922-10.212 1.124-20.423.51-30.43-3.165l-13.887-4.8c-9.7-3.165-19.912-4.492-30.123-3.982-14.5 1.123-28.081 5.923-40.947 12.764-13.683 7.352-23.282 18.483-27.877 33.493-2.553 8.782-2.86 17.87-1.736 26.958 2.86 20.729 13.683 35.228 32.982 42.887 1.124.306 2.043.817 3.166 1.123 2.553 1.43 2.859 2.86.51 4.8l-7.147 4.799-17.053 10.517c-4.289 2.553-4.8 4.595-3.37 9.088 1.736 5.31 4.8 10.007 9.088 13.683 3.88 3.37 8.271 6.025 13.07 7.965 3.166 1.43 3.166 2.042.307 4.595l-16.236 11.641c-5.412 4.187-10.824 8.271-15.317 13.683a27.922 27.922 0 0 0-6.842 25.528c2.145 9.905 7.25 18.789 14.807 25.528a59.6 59.6 0 0 0 26.14 14.194c15.93 4.595 32.37 4.8 48.606 1.736 23.282-4.289 43.704-14.602 59.634-32.063 11.13-11.641 17.563-25.324 18.176-41.56 1.327-19.504-11.743-36.965-30.736-41.458l-15.317-2.859-46.87-4.187c-5.105-.306-10.21-1.123-14.5-3.676-5.411-3.37-6.841-9.905-3.37-14.193 2.554-3.166 5.72-5.106 9.701-5.412l9.088-.817a82.347 82.347 0 0 0 47.993-21.852 50.514 50.514 0 0 0 14.5-24.2c3.37-12.254 3.37-24.916.51-37.374-.816-3.165-.51-3.37 3.37-2.86zm-69.641 141.528c1.736.306 3.37 0 5.106 0 11.947.51 24.2 1.43 35.841 4.595 3.778 1.123 7.556 2.553 11.13 4.289 11.335 6.229 15.623 17.053 14.194 28.693-1.736 12.764-8.782 21.852-19.912 27.877-7.352 4.187-15.623 5.923-24.2 6.842-3.166.306-5.923 0-9.089 0-9.905.306-19.605-.817-29-4.8-6.535-2.553-11.947-6.229-16.746-11.334-9.905-9.905-14.602-28.081.306-42.887 9.088-8.476 19.3-14.398 32.37-13.275zm32.472-88.634c-5.923 15.011-19.095 19.606-32.064 17.564-11.947-1.736-20.728-8.271-26.447-19.095-7.352-14.5-9.394-29.51-5.105-45.134 3.165-11.64 10.21-20.422 22.77-22.465 15.93-2.859 31.145 2.86 39.212 18.789 4.187 7.658 5.922 17.053 5.922 30.43-.306 5.411-1.43 12.764-4.288 19.911zm-358.006-19.4c-2.553-15.318-8.271-29.307-18.79-40.948-15.622-17.36-35.534-24.915-57.999-25.018-19.605-.306-38.088 5.412-54.528 15.624-16.236 9.7-28.08 25.221-33.289 43.5-4.799 16.44-4.595 33.288-.816 50.035 9.904 44.93 44.623 64.228 86.08 61.37 12.254-.818 23.895-4.8 34.923-10.212 16.44-7.658 28.387-19.912 36.658-36.046 6.535-13.376 9.394-27.57 9.088-43.806zm-40.335 63.105c-4.186 13.07-15.623 22.464-29.306 23.894-12.458 1.736-24.2-1.43-34.616-8.782-7.556-5.616-13.683-12.866-17.87-21.341-11.64-23.895-13.683-48.81-7.658-74.44 1.94-7.965 6.024-15.113 11.947-20.73 10.517-9.7 22.771-11.946 36.352-9.087 13.07 2.86 22.975 9.905 31.144 20.729s11.947 23.281 14.194 36.352c1.123 6.535 1.123 13.376 1.43 17.563 0 13.683-1.124 24.916-5.413 35.842zm661.178-60.757c-2.042-16.44-8.271-31.553-19.912-44.01-15.317-16.747-35.229-23.895-57.387-24.201-19.095-.307-36.658 5.105-52.894 14.5-18.176 10.823-30.736 26.14-35.535 46.87-5.719 22.668-3.37 46.562 6.841 67.598 9.394 19.911 25.324 32.676 46.36 38.394 23.28 6.229 45.44 3.37 67.087-7.148 18.789-9.088 32.063-23.282 39.824-42.58 4.595-11.335 6.229-23.589 6.535-37.783.204-2.552-.408-7.147-.919-11.64zm-39.211 57.08c-4.595 15.317-14.194 25.324-30.43 27.57-11.947 1.737-23.281-1.122-33.493-7.964-8.781-5.922-15.01-13.887-19.605-23.282-5.106-9.904-7.965-20.422-9.088-31.246-1.736-13.377-1.736-26.447 1.43-39.824.612-2.655 1.43-5.208 2.552-7.658 7.965-19.912 25.528-29 46.36-24.405 13.887 3.165 24.404 10.824 32.369 22.465 7.658 11.334 11.334 23.894 13.07 37.373.817 5.412 1.124 11.13.817 15.93 0 11.13-.817 21.34-4.186 31.246z" fill="#47474a"/></svg>