<svg width="118" height="95" viewBox="0 0 118 95" fill="none" xmlns="http://www.w3.org/2000/svg">
<path d="M35.8369 94.2305C28.4131 94.2305 22.0557 92.3848 16.7646 88.6934C11.5146 84.9609 7.49512 79.6084 4.70605 72.6357C1.91699 65.6221 0.522461 57.1523 0.522461 47.2266C0.522461 37.3008 1.91699 28.8311 4.70605 21.8174C7.49512 14.7627 11.5146 9.38965 16.7646 5.69824C22.0557 1.96582 28.4131 0.0996094 35.8369 0.0996094C43.2197 0.0996094 49.5566 1.96582 54.8477 5.69824C60.1387 9.43066 64.1787 14.8037 66.9678 21.8174C69.7568 28.8311 71.1514 37.3008 71.1514 47.2266C71.1514 57.1523 69.7568 65.6221 66.9678 72.6357C64.1787 79.6084 60.1592 84.9609 54.9092 88.6934C49.6592 92.3848 43.3018 94.2305 35.8369 94.2305ZM35.8369 80.3262C39.8154 80.3262 43.1787 79.0342 45.9268 76.4502C48.7158 73.8662 50.8281 70.1133 52.2637 65.1914C53.7402 60.2285 54.4785 54.2402 54.4785 47.2266C54.4785 40.1719 53.7402 34.1631 52.2637 29.2002C50.8281 24.2373 48.7158 20.4639 45.9268 17.8799C43.1787 15.2549 39.8154 13.9424 35.8369 13.9424C29.8486 13.9424 25.2344 16.8545 21.9941 22.6787C18.7949 28.4619 17.1953 36.6445 17.1953 47.2266C17.1953 54.2402 17.9131 60.2285 19.3486 65.1914C20.7842 70.1133 22.8965 73.8662 25.6855 76.4502C28.4746 79.0342 31.8584 80.3262 35.8369 80.3262ZM117.355 1.33008V93H100.867V17.5107H100.313L78.9033 31.2305V15.9727L101.667 1.33008H117.355Z" fill="url(#paint0_linear_22_97)"/>
<defs>
<linearGradient id="paint0_linear_22_97" x1="39.94" y1="22.2369" x2="60" y2="107" gradientUnits="userSpaceOnUse">
<stop stop-color="white" stop-opacity="0.3"/>
<stop offset="1" stop-color="#2B2B2B" stop-opacity="0"/>
</linearGradient>
</defs>
</svg>
