<svg width="144" height="95" viewBox="0 0 144 95" fill="none" xmlns="http://www.w3.org/2000/svg">
<path d="M35.6826 94.2305C28.2588 94.2305 21.9014 92.3848 16.6104 88.6934C11.3604 84.9609 7.34082 79.6084 4.55176 72.6357C1.7627 65.6221 0.368164 57.1523 0.368164 47.2266C0.368164 37.3008 1.7627 28.8311 4.55176 21.8174C7.34082 14.7627 11.3604 9.38965 16.6104 5.69824C21.9014 1.96582 28.2588 0.0996094 35.6826 0.0996094C43.0654 0.0996094 49.4023 1.96582 54.6934 5.69824C59.9844 9.43066 64.0244 14.8037 66.8135 21.8174C69.6025 28.8311 70.9971 37.3008 70.9971 47.2266C70.9971 57.1523 69.6025 65.6221 66.8135 72.6357C64.0244 79.6084 60.0049 84.9609 54.7549 88.6934C49.5049 92.3848 43.1475 94.2305 35.6826 94.2305ZM35.6826 80.3262C39.6611 80.3262 43.0244 79.0342 45.7725 76.4502C48.5615 73.8662 50.6738 70.1133 52.1094 65.1914C53.5859 60.2285 54.3242 54.2402 54.3242 47.2266C54.3242 40.1719 53.5859 34.1631 52.1094 29.2002C50.6738 24.2373 48.5615 20.4639 45.7725 17.8799C43.0244 15.2549 39.6611 13.9424 35.6826 13.9424C29.6943 13.9424 25.0801 16.8545 21.8398 22.6787C18.6406 28.4619 17.041 36.6445 17.041 47.2266C17.041 54.2402 17.7588 60.2285 19.1943 65.1914C20.6299 70.1133 22.7422 73.8662 25.5312 76.4502C28.3203 79.0342 31.7041 80.3262 35.6826 80.3262ZM81.0869 93V81.0645L112.956 49.8105C115.95 46.7344 118.452 44.0068 120.462 41.6279C122.513 39.249 124.051 36.9521 125.076 34.7373C126.102 32.4814 126.614 30.082 126.614 27.5391C126.614 24.668 125.958 22.1865 124.646 20.0947C123.333 18.0029 121.528 16.4033 119.231 15.2959C116.976 14.1885 114.392 13.6348 111.479 13.6348C108.444 13.6348 105.799 14.25 103.543 15.4805C101.287 16.7109 99.5234 18.4541 98.252 20.71C97.0215 22.9658 96.4062 25.6523 96.4062 28.7695H80.6562C80.6562 22.9863 81.9688 17.9619 84.5938 13.6963C87.2598 9.38965 90.9307 6.04688 95.6064 3.66797C100.282 1.28906 105.635 0.0996094 111.664 0.0996094C117.857 0.0996094 123.271 1.24805 127.906 3.54492C132.541 5.8418 136.15 9 138.734 13.0195C141.318 16.998 142.61 21.5508 142.61 26.6777C142.61 30.123 141.954 33.5068 140.642 36.8291C139.329 40.1104 137.012 43.7812 133.689 47.8418C130.408 51.8613 125.794 56.7217 119.847 62.4229L104.097 78.4805V79.1572H143.964V93H81.0869Z" fill="url(#paint0_linear_22_100)"/>
<defs>
<linearGradient id="paint0_linear_22_100" x1="48.8653" y1="22.2369" x2="65.8165" y2="108.413" gradientUnits="userSpaceOnUse">
<stop stop-color="white" stop-opacity="0.3"/>
<stop offset="1" stop-color="#2B2B2B" stop-opacity="0"/>
</linearGradient>
</defs>
</svg>
