<svg width="148" height="95" viewBox="0 0 148 95" fill="none" xmlns="http://www.w3.org/2000/svg">
<path d="M35.6826 94.2305C28.2588 94.2305 21.9014 92.3848 16.6104 88.6934C11.3604 84.9609 7.34082 79.6084 4.55176 72.6357C1.7627 65.6221 0.368164 57.1523 0.368164 47.2266C0.368164 37.3008 1.7627 28.8311 4.55176 21.8174C7.34082 14.7627 11.3604 9.38965 16.6104 5.69824C21.9014 1.96582 28.2588 0.0996094 35.6826 0.0996094C43.0654 0.0996094 49.4023 1.96582 54.6934 5.69824C59.9844 9.43066 64.0244 14.8037 66.8135 21.8174C69.6025 28.8311 70.9971 37.3008 70.9971 47.2266C70.9971 57.1523 69.6025 65.6221 66.8135 72.6357C64.0244 79.6084 60.0049 84.9609 54.7549 88.6934C49.5049 92.3848 43.1475 94.2305 35.6826 94.2305ZM35.6826 80.3262C39.6611 80.3262 43.0244 79.0342 45.7725 76.4502C48.5615 73.8662 50.6738 70.1133 52.1094 65.1914C53.5859 60.2285 54.3242 54.2402 54.3242 47.2266C54.3242 40.1719 53.5859 34.1631 52.1094 29.2002C50.6738 24.2373 48.5615 20.4639 45.7725 17.8799C43.0244 15.2549 39.6611 13.9424 35.6826 13.9424C29.6943 13.9424 25.0801 16.8545 21.8398 22.6787C18.6406 28.4619 17.041 36.6445 17.041 47.2266C17.041 54.2402 17.7588 60.2285 19.1943 65.1914C20.6299 70.1133 22.7422 73.8662 25.5312 76.4502C28.3203 79.0342 31.7041 80.3262 35.6826 80.3262ZM114.002 94.2305C107.562 94.2305 101.841 93.1436 96.8369 90.9697C91.833 88.7549 87.875 85.6787 84.9629 81.7412C82.0918 77.8037 80.5947 73.251 80.4717 68.083H97.2061C97.3291 70.585 98.1289 72.7588 99.6055 74.6045C101.123 76.4092 103.133 77.8242 105.635 78.8496C108.137 79.834 110.926 80.3262 114.002 80.3262C117.283 80.3262 120.175 79.752 122.677 78.6035C125.22 77.4141 127.209 75.8145 128.645 73.8047C130.08 71.7539 130.798 69.3955 130.798 66.7295C130.798 63.9404 130.06 61.4795 128.583 59.3467C127.147 57.2139 125.056 55.5527 122.308 54.3633C119.56 53.1738 116.258 52.5791 112.402 52.5791H104.22V39.7822H112.402C115.52 39.7822 118.288 39.2285 120.708 38.1211C123.128 37.0137 125.015 35.4756 126.368 33.5068C127.722 31.4971 128.398 29.1592 128.398 26.4932C128.398 23.9092 127.804 21.6533 126.614 19.7256C125.466 17.7979 123.825 16.3008 121.692 15.2344C119.56 14.168 117.058 13.6348 114.187 13.6348C111.397 13.6348 108.793 14.1475 106.373 15.1729C103.994 16.1572 102.066 17.5723 100.59 19.418C99.1543 21.2637 98.3955 23.4785 98.3135 26.0625H82.3789C82.4609 20.9355 83.917 16.4238 86.7471 12.5273C89.6182 8.63086 93.4531 5.5957 98.252 3.42188C103.051 1.20703 108.424 0.0996094 114.371 0.0996094C120.441 0.0996094 125.732 1.24805 130.244 3.54492C134.797 5.80078 138.304 8.85645 140.765 12.7119C143.267 16.5674 144.518 20.8125 144.518 25.4473C144.518 30.6152 143 34.9424 139.965 38.4287C136.93 41.915 132.931 44.2119 127.968 45.3193V45.9961C134.366 46.8984 139.268 49.2773 142.672 53.1328C146.117 56.9883 147.84 61.7871 147.84 67.5293C147.84 72.6562 146.384 77.25 143.472 81.3105C140.56 85.3301 136.561 88.4883 131.475 90.7852C126.389 93.082 120.564 94.2305 114.002 94.2305Z" fill="url(#paint0_linear_22_104)"/>
<defs>
<linearGradient id="paint0_linear_22_104" x1="49.8951" y1="22.2369" x2="66.5459" y2="108.535" gradientUnits="userSpaceOnUse">
<stop stop-color="white" stop-opacity="0.3"/>
<stop offset="1" stop-color="#2B2B2B" stop-opacity="0"/>
</linearGradient>
</defs>
</svg>
