<svg width="45" height="45" viewBox="0 0 45 45" fill="none" xmlns="http://www.w3.org/2000/svg">
<rect x="0.5" y="0.5" width="44" height="44" rx="12" fill="black" fill-opacity="0.301961"/>
<path d="M12.4377 29V17H16.8057L16.9257 19.472C17.2777 18.592 17.8057 17.92 18.5097 17.456C19.2137 16.992 20.0537 16.76 21.0297 16.76C21.9257 16.76 22.6857 16.968 23.3097 17.384C23.9497 17.784 24.4057 18.376 24.6777 19.16C24.9337 18.632 25.2537 18.192 25.6377 17.84C26.0377 17.488 26.4937 17.224 27.0057 17.048C27.5337 16.856 28.0937 16.76 28.6857 16.76C29.4857 16.76 30.1737 16.92 30.7497 17.24C31.3417 17.544 31.7977 18.008 32.1177 18.632C32.4377 19.24 32.5977 19.992 32.5977 20.888V29H27.7497V22.088C27.7497 21.448 27.6457 21.008 27.4377 20.768C27.2297 20.512 26.9337 20.384 26.5497 20.384C26.2297 20.384 25.9417 20.464 25.6857 20.624C25.4457 20.784 25.2617 21.04 25.1337 21.392C25.0057 21.728 24.9417 22.152 24.9417 22.664V29H20.0937V22.088C20.0937 21.448 19.9897 21.008 19.7817 20.768C19.5737 20.512 19.2777 20.384 18.8937 20.384C18.5897 20.384 18.3097 20.464 18.0537 20.624C17.8137 20.784 17.6217 21.04 17.4777 21.392C17.3497 21.728 17.2857 22.16 17.2857 22.688V29H12.4377Z" fill="white"/>
</svg>
