<svg xmlns="http://www.w3.org/2000/svg" viewBox="0 0 102 28" data-v-247fd615=""><path d="M28.18 19.06A6.54 6.54 0 0123 16c.67-5.34 2.62-7 5.2-7s4.54 2 4.54 5-2 5-4.54 5m0-13.34a7.77 7.77 0 00-7.9 6.08 26 26 0 01-1.93-5.62H12v7.9c0 2.87-1.3 5-3.85 5s-4-2.12-4-5v-7.9H.49v7.9A8.61 8.61 0 002.6 20a7.27 7.27 0 005.54 2.35c4.41 0 7.5-3.39 7.5-8.24V8.77a25.87 25.87 0 003.66 8.05L17.34 28h3.72l1.29-7.92a11 11 0 001.36 1 8.32 8.32 0 004.14 1.28h.34A8.1 8.1 0 0036.37 14a8.12 8.12 0 00-8.19-8.31M80.8 7.86V6.18h-3.6v15.63h3.65v-6.12c0-3.77.34-6.48 5.4-6.13V6c-2.36-.18-4.2.31-5.45 1.87m-25.29-1.7l-2.64 10.94-2.82-10.94h-4.64l-2.82 10.94-2.64-10.94h-3.69l4.05 15.65h4.38l3.04-11.11 3.01 11.11h4.38L59.4 6.17h-3.89zm11.91 12.9c-2.59 0-4.53-2.05-4.53-5s2-5 4.53-5S72 11 72 14s-2 5-4.54 5m0-13.35A8.1 8.1 0 0059.25 14a8.18 8.18 0 1016.35 0 8.11 8.11 0 00-8.18-8.31m24.05 8.44h.84l5.09 7.69h4.11l-5.85-8.53a7.66 7.66 0 004.74-7.11h-3.63c0 3.37-2.66 4.65-5.3 4.65V0h-3.65v21.82h3.64z" fill="white" data-v-247fd615=""></path></svg>