<svg xmlns="http://www.w3.org/2000/svg" viewBox="0 0 500 500"><g id="freepik--Floor--inject-23"><path id="freepik--floor--inject-23" d="M101.24,426.64c85.14,45.44,223.17,45.44,308.3,0s85.13-119.12,0-164.56-223.17-45.44-308.3,0S16.11,381.2,101.24,426.64Z" style="fill:#f0f0f0"></path></g><g id="freepik--Shadow--inject-23"><path id="freepik--shadow--inject-23" d="M252.7,365.39l62.22,35.77a2.88,2.88,0,0,0,2.59,0l110.13-63.58a.79.79,0,0,0,0-1.5l-62.22-35.77a2.82,2.82,0,0,0-2.59,0L252.7,363.89A.79.79,0,0,0,252.7,365.39Z" style="fill:#e0e0e0"></path><path id="freepik--shadow--inject-23" d="M442.76,384c-.2-1.59-2.11-2.4-3.16-3l-42.48-24.6a6.11,6.11,0,0,0-6.08,0L348.57,380.8c-1.25.73-3.3,2.11-3.3,3.72s1.12,2,3.18,3.17l42.17,24.36a6.94,6.94,0,0,0,6.94,0l43.52-24.93A3.25,3.25,0,0,0,442.76,384Z" style="fill:#e0e0e0"></path></g><g id="freepik--Servers--inject-23"><g id="freepik--Server--inject-23"><path d="M297.73,257.89l10-5.78a4.79,4.79,0,0,1,4.33,0l62.83,36.27" style="fill:none;stroke:#407BFF;stroke-miterlimit:10"></path><path d="M293.67,255.55l14.08-8.13a4.79,4.79,0,0,1,4.33,0L379,286" style="fill:none;stroke:#407BFF;stroke-miterlimit:10"></path><path d="M383,283.69l-70.95-41a4.79,4.79,0,0,0-4.33,0L289.6,253.2" style="fill:none;stroke:#407BFF;stroke-miterlimit:10"></path><path d="M387.09,281.35l-75-43.31a4.79,4.79,0,0,0-4.33,0l-22.22,12.82" style="fill:none;stroke:#407BFF;stroke-miterlimit:10"></path><path d="M234.62,45.75,169.89,83.12a4.78,4.78,0,0,0-2.16,3.75V264.79a4.8,4.8,0,0,0,2.16,3.75l64.73,37.37a4.79,4.79,0,0,0,4.33,0l64.72-37.37a4.78,4.78,0,0,0,2.17-3.75V86.87a4.76,4.76,0,0,0-2.17-3.75L239,45.75A4.79,4.79,0,0,0,234.62,45.75Z" style="fill:#37474f"></path><path d="M305.84,86.86V264.79a4.8,4.8,0,0,1-2.16,3.75L239,305.91a4.34,4.34,0,0,1-2.16.52V123.5A4.48,4.48,0,0,0,239,123l64.73-37.37.59-.49.77-.64A4.49,4.49,0,0,1,305.84,86.86Z" style="fill:#263238"></path><path d="M178,104.38l48.48,28a4.81,4.81,0,0,1,2.16,3.75v18.46c0,1.38-1,1.94-2.17,1.25l-48.47-28a4.78,4.78,0,0,1-2.17-3.75V105.63C175.85,104.25,176.82,103.69,178,104.38Z" style="fill:#455a64"></path><path d="M179.91,112.51a4.64,4.64,0,0,0,2.17,3.59l40.35,23.3c1.2.69,2.17.2,2.17-1.09a4.64,4.64,0,0,0-2.17-3.6l-40.35-23.3C180.88,110.72,179.91,111.21,179.91,112.51Z" style="fill:#407BFF"></path><path d="M179.91,121.89a4.64,4.64,0,0,0,2.17,3.59l40.35,23.3c1.2.69,2.17.2,2.17-1.09a4.64,4.64,0,0,0-2.17-3.6l-40.35-23.3C180.88,120.1,179.91,120.59,179.91,121.89Z" style="fill:#263238"></path><path d="M182.08,120.79l22.21,12.83v4.69l-22.21-12.83a4.64,4.64,0,0,1-2.17-3.59C179.91,120.59,180.88,120.1,182.08,120.79Z" style="fill:#407BFF"></path><path d="M178,137.21l48.48,28a4.8,4.8,0,0,1,2.16,3.75V187.4c0,1.38-1,1.94-2.17,1.25l-48.47-28a4.78,4.78,0,0,1-2.17-3.75V138.46C175.85,137.08,176.82,136.52,178,137.21Z" style="fill:#455a64"></path><path d="M179.91,145.34a4.64,4.64,0,0,0,2.17,3.6l40.35,23.29c1.2.69,2.17.2,2.17-1.09a4.64,4.64,0,0,0-2.17-3.6l-40.35-23.29C180.88,143.56,179.91,144.05,179.91,145.34Z" style="fill:#407BFF"></path><path d="M179.91,154.72a4.64,4.64,0,0,0,2.17,3.6l40.35,23.29c1.2.7,2.17.2,2.17-1.09a4.64,4.64,0,0,0-2.17-3.6l-40.35-23.29C180.88,152.94,179.91,153.43,179.91,154.72Z" style="fill:#263238"></path><path d="M182.08,153.63l34.39,19.85v4.69l-34.39-19.85a4.64,4.64,0,0,1-2.17-3.6C179.91,153.43,180.88,152.94,182.08,153.63Z" style="fill:#407BFF"></path><path d="M178,170l48.48,28a4.8,4.8,0,0,1,2.16,3.75v18.45c0,1.38-1,1.94-2.17,1.25L178,193.5a4.78,4.78,0,0,1-2.17-3.75V171.29C175.85,169.91,176.82,169.35,178,170Z" style="fill:#455a64"></path><path d="M179.91,178.17a4.64,4.64,0,0,0,2.17,3.6l40.35,23.3c1.2.69,2.17.2,2.17-1.1a4.64,4.64,0,0,0-2.17-3.59l-40.35-23.3C180.88,176.39,179.91,176.88,179.91,178.17Z" style="fill:#407BFF"></path><path d="M179.91,187.56a4.64,4.64,0,0,0,2.17,3.59l40.35,23.3c1.2.69,2.17.2,2.17-1.1a4.64,4.64,0,0,0-2.17-3.59l-40.35-23.3C180.88,185.77,179.91,186.26,179.91,187.56Z" style="fill:#263238"></path><path d="M182.08,186.46l14.08,8.13v4.69l-14.08-8.13a4.64,4.64,0,0,1-2.17-3.59C179.91,186.26,180.88,185.77,182.08,186.46Z" style="fill:#407BFF"></path><path d="M178,202.88l48.48,28a4.8,4.8,0,0,1,2.16,3.75v18.46c0,1.38-1,1.94-2.17,1.25l-48.47-28a4.78,4.78,0,0,1-2.17-3.75V204.13C175.85,202.75,176.82,202.19,178,202.88Z" style="fill:#455a64"></path><path d="M179.91,211a4.64,4.64,0,0,0,2.17,3.59l40.35,23.3c1.2.69,2.17.2,2.17-1.1a4.64,4.64,0,0,0-2.17-3.59l-40.35-23.3C180.88,209.22,179.91,209.71,179.91,211Z" style="fill:#407BFF"></path><path d="M179.91,220.39a4.64,4.64,0,0,0,2.17,3.59l40.35,23.3c1.2.69,2.17.2,2.17-1.09a4.64,4.64,0,0,0-2.17-3.6l-40.35-23.3C180.88,218.6,179.91,219.09,179.91,220.39Z" style="fill:#263238"></path><path d="M182.08,219.29l22.21,12.82v4.69L182.08,224a4.64,4.64,0,0,1-2.17-3.59C179.91,219.09,180.88,218.6,182.08,219.29Z" style="fill:#407BFF"></path><path d="M178,235.71l48.48,28a4.8,4.8,0,0,1,2.16,3.75V285.9c0,1.38-1,1.94-2.17,1.25l-48.47-28a4.78,4.78,0,0,1-2.17-3.75V237C175.85,235.58,176.82,235,178,235.71Z" style="fill:#455a64"></path><path d="M179.91,243.84a4.64,4.64,0,0,0,2.17,3.6l40.35,23.29c1.2.69,2.17.2,2.17-1.09a4.64,4.64,0,0,0-2.17-3.6l-40.35-23.29C180.88,242.05,179.91,242.55,179.91,243.84Z" style="fill:#407BFF"></path><path d="M179.91,253.22a4.64,4.64,0,0,0,2.17,3.6l40.35,23.29c1.2.69,2.17.2,2.17-1.09a4.64,4.64,0,0,0-2.17-3.6l-40.35-23.29C180.88,251.44,179.91,251.93,179.91,253.22Z" style="fill:#263238"></path><path d="M182.08,252.13l30.33,17.51v4.69l-30.33-17.51a4.64,4.64,0,0,1-2.17-3.6C179.91,251.93,180.88,251.44,182.08,252.13Z" style="fill:#407BFF"></path><path d="M246.94,134.8c2.24-1.3,4.06-.12,4.06,2.64V244.71a9.33,9.33,0,0,1-4.06,7.36c-2.24,1.3-4.06.11-4.06-2.65V142.15A9.31,9.31,0,0,1,246.94,134.8Z" style="fill:#37474f"></path><path d="M246.94,249.69a4.63,4.63,0,0,0,2-3.67V138.45c0-1.38-.91-2-2-1.33a4.65,4.65,0,0,0-2,3.68V248.37C244.91,249.75,245.82,250.34,246.94,249.69Z" style="fill:#263238"></path><path d="M246.94,249.69a4.63,4.63,0,0,0,2-3.67V194.59l-4.06,2.35v51.43C244.91,249.75,245.82,250.34,246.94,249.69Z" style="fill:#407BFF"></path><path d="M259.12,127.76c2.25-1.3,4.07-.11,4.07,2.65V237.68a9.31,9.31,0,0,1-4.06,7.35c-2.25,1.3-4.07.12-4.07-2.64V135.12A9.33,9.33,0,0,1,259.12,127.76Z" style="fill:#37474f"></path><path d="M259.13,242.66a4.65,4.65,0,0,0,2-3.67V131.42c0-1.39-.91-2-2-1.33a4.65,4.65,0,0,0-2,3.67V241.33C257.09,242.71,258,243.31,259.13,242.66Z" style="fill:#407BFF"></path><path d="M271.31,120.73c2.24-1.3,4.06-.12,4.06,2.64V230.64a9.3,9.3,0,0,1-4.06,7.36c-2.24,1.3-4.06.11-4.06-2.65V128.08A9.31,9.31,0,0,1,271.31,120.73Z" style="fill:#37474f"></path><path d="M271.31,235.62a4.63,4.63,0,0,0,2-3.67V124.38c0-1.38-.91-2-2-1.33a4.65,4.65,0,0,0-2,3.67V234.3C269.28,235.68,270.19,236.27,271.31,235.62Z" style="fill:#263238"></path><path d="M271.31,235.62a4.63,4.63,0,0,0,2-3.67V148.86l-4.06,2.34v83.1C269.28,235.68,270.19,236.27,271.31,235.62Z" style="fill:#407BFF"></path><path d="M283.5,113.69c2.24-1.3,4.06-.12,4.06,2.65V223.61A9.31,9.31,0,0,1,283.5,231c-2.25,1.3-4.06.12-4.06-2.64V121.05A9.29,9.29,0,0,1,283.5,113.69Z" style="fill:#37474f"></path><path d="M283.5,228.59a4.65,4.65,0,0,0,2-3.67V117.34c0-1.38-.91-2-2-1.32a4.63,4.63,0,0,0-2,3.67V227.26C281.47,228.64,282.38,229.24,283.5,228.59Z" style="fill:#263238"></path><path d="M283.5,228.59a4.65,4.65,0,0,0,2-3.67V206.76l-4.06,2.34v18.16C281.47,228.64,282.38,229.24,283.5,228.59Z" style="fill:#407BFF"></path><path d="M295.68,106.66c2.25-1.3,4.07-.12,4.07,2.64V216.57a9.31,9.31,0,0,1-4.07,7.36c-2.24,1.3-4.06.11-4.06-2.65V114A9.31,9.31,0,0,1,295.68,106.66Z" style="fill:#37474f"></path><path d="M295.68,221.55a4.63,4.63,0,0,0,2-3.67V110.31c0-1.38-.9-2-2-1.33a4.65,4.65,0,0,0-2,3.67V220.23C293.65,221.61,294.56,222.2,295.68,221.55Z" style="fill:#263238"></path><path d="M295.68,221.55a4.63,4.63,0,0,0,2-3.67V161.76l-4.06,2.34v56.13C293.65,221.61,294.56,222.2,295.68,221.55Z" style="fill:#407BFF"></path><path d="M244.61,265.12,298,234.29c1-.56,1.74-.11,1.74,1v19.45a3.83,3.83,0,0,1-1.74,3l-53.4,30.83c-1,.55-1.73.11-1.73-1V268.12A3.82,3.82,0,0,1,244.61,265.12Z" style="fill:#37474f"></path><path d="M246.8,270.89c0,1.29,1,1.78,2.17,1.09l44.68-25.8a4.64,4.64,0,0,0,2.17-3.6c0-1.29-1-1.78-2.17-1.09L249,267.29A4.64,4.64,0,0,0,246.8,270.89Z" style="fill:#263238"></path><path d="M246.8,270.89c0,1.29,1,1.78,2.17,1.09l32.5-18.77v-4.69L249,267.29A4.64,4.64,0,0,0,246.8,270.89Z" style="fill:#407BFF"></path><path d="M246.8,280.27c0,1.29,1,1.78,2.17,1.09l44.68-25.8a4.64,4.64,0,0,0,2.17-3.6c0-1.29-1-1.78-2.17-1.09L249,276.67A4.64,4.64,0,0,0,246.8,280.27Z" style="fill:#263238"></path><path d="M246.8,280.27c0,1.29,1,1.78,2.17,1.09l12.19-7v-4.69l-12.19,7A4.64,4.64,0,0,0,246.8,280.27Z" style="fill:#407BFF"></path><path d="M303.67,83.12,239,45.75a4.79,4.79,0,0,0-4.33,0L169.89,83.12a1.32,1.32,0,0,0,0,2.5L234.62,123a4.79,4.79,0,0,0,4.33,0l64.72-37.36A1.32,1.32,0,0,0,303.67,83.12Z" style="fill:#455a64"></path><path d="M235.48,114.1l-50.2-29a2.89,2.89,0,0,1-1.3-2.25v-1.7a2.89,2.89,0,0,1,1.3-2.25l50.2-29a2.84,2.84,0,0,1,2.6,0l50.21,29a2.86,2.86,0,0,1,1.3,2.25v1.69a2.89,2.89,0,0,1-1.3,2.25l-50.21,29A2.84,2.84,0,0,1,235.48,114.1Z" style="fill:#263238"></path><path d="M185.28,80.42l50.2,29a2.84,2.84,0,0,0,2.6,0l50.21-29c.72-.42.72-1.09,0-1.5l-50.21-28a2.84,2.84,0,0,0-2.6,0l-50.2,28C184.56,79.34,184.56,80,185.28,80.42Z" style="fill:#455a64"></path><path d="M236.79,109.72v4.69a2.63,2.63,0,0,1-1.3-.31l-50.21-29a2.86,2.86,0,0,1-1.3-2.25V81.17A2.89,2.89,0,0,1,185,79.09c-.47.41-.39,1,.24,1.33l50.21,29A2.63,2.63,0,0,0,236.79,109.72Z" style="fill:#37474f"></path><path d="M235.48,100l-34-19.61a2.88,2.88,0,0,1-1.3-2.25V76.48a2.91,2.91,0,0,1,1.3-2.25L223.3,61.66a8.5,8.5,0,0,0,2.19-1.95l10.4-14a1.72,1.72,0,0,1,2.19-.45l34,19.6a2.87,2.87,0,0,1,1.3,2.25V78.18a2.89,2.89,0,0,1-1.3,2.25l-34,19.6A2.84,2.84,0,0,1,235.48,100Z" style="fill:#263238"></path><path d="M238.08,95.34l21.78-12.57a8.71,8.71,0,0,0,2.19-2l10.4-14a1.31,1.31,0,0,0-.41-2l-34-19.6a1.72,1.72,0,0,0-2.19.45l-10.4,14a8.08,8.08,0,0,1-2,2l-22,12.49a.79.79,0,0,0,0,1.5l34,19.61A2.84,2.84,0,0,0,238.08,95.34Z" style="fill:#455a64"></path><path d="M272,64.85l-34-19.6a1.72,1.72,0,0,0-2.19.45l-10.4,14a8.28,8.28,0,0,1-1.06,1.11S261,81.93,261,81.92a8.25,8.25,0,0,0,1.06-1.1l10.4-14A1.31,1.31,0,0,0,272,64.85Z" style="fill:#37474f"></path><path d="M209.76,74.58a3.35,3.35,0,0,1,3.05,0,.93.93,0,0,1,0,1.76,3.41,3.41,0,0,1-3.05,0A.93.93,0,0,1,209.76,74.58Z" style="fill:#407BFF"></path><path d="M215.86,78.1a3.33,3.33,0,0,1,3,0,.93.93,0,0,1,0,1.76,3.39,3.39,0,0,1-3,0A.93.93,0,0,1,215.86,78.1Z" style="fill:#407BFF"></path><path d="M222,81.61a3.41,3.41,0,0,1,3.05,0,.93.93,0,0,1,0,1.76,3.35,3.35,0,0,1-3.05,0A.93.93,0,0,1,222,81.61Z" style="fill:#263238"></path><path d="M228,85.13a3.41,3.41,0,0,1,3.05,0,.93.93,0,0,1,0,1.76,3.35,3.35,0,0,1-3.05,0A.93.93,0,0,1,228,85.13Z" style="fill:#263238"></path><ellipse cx="215.86" cy="72.82" rx="2.15" ry="1.24" style="fill:#407BFF"></ellipse><path d="M220.43,75.46a3.33,3.33,0,0,1,3,0,.93.93,0,0,1,0,1.76,3.39,3.39,0,0,1-3,0C219.58,76.73,219.58,75.94,220.43,75.46Z" style="fill:#263238"></path><ellipse cx="228.04" cy="79.86" rx="2.15" ry="1.24" style="fill:#407BFF"></ellipse><path d="M232.61,82.49a3.41,3.41,0,0,1,3,0,.93.93,0,0,1,0,1.76,3.35,3.35,0,0,1-3,0A.93.93,0,0,1,232.61,82.49Z" style="fill:#263238"></path><path d="M218.9,69.3a3.41,3.41,0,0,1,3,0,.93.93,0,0,1,0,1.76,3.35,3.35,0,0,1-3,0A.93.93,0,0,1,218.9,69.3Z" style="fill:#263238"></path><path d="M225,72.82a3.33,3.33,0,0,1,3,0,.93.93,0,0,1,0,1.76,3.39,3.39,0,0,1-3,0A.93.93,0,0,1,225,72.82Z" style="fill:#407BFF"></path><path d="M231.09,76.34a3.35,3.35,0,0,1,3,0,.93.93,0,0,1,0,1.76,3.41,3.41,0,0,1-3,0A.93.93,0,0,1,231.09,76.34Z" style="fill:#263238"></path><path d="M234.17,88.58a3.35,3.35,0,0,1,3.05,0,.93.93,0,0,1,0,1.76,3.41,3.41,0,0,1-3.05,0A.93.93,0,0,1,234.17,88.58Z" style="fill:#407BFF"></path><ellipse cx="240.26" cy="86.82" rx="2.15" ry="1.24" style="fill:#263238"></ellipse><path d="M237.18,79.86a3.35,3.35,0,0,1,3,0,.93.93,0,0,1,0,1.76,3.41,3.41,0,0,1-3,0A.93.93,0,0,1,237.18,79.86Z" style="fill:#263238"></path><path d="M223.47,66.67a3.35,3.35,0,0,1,3.05,0,.93.93,0,0,1,0,1.76,3.41,3.41,0,0,1-3.05,0A.93.93,0,0,1,223.47,66.67Z" style="fill:#407BFF"></path><ellipse cx="231.09" cy="71.06" rx="2.15" ry="1.24" style="fill:#263238"></ellipse><path d="M235.66,73.7a3.39,3.39,0,0,1,3,0,.93.93,0,0,1,0,1.76,3.33,3.33,0,0,1-3,0A.93.93,0,0,1,235.66,73.7Z" style="fill:#407BFF"></path><ellipse cx="243.27" cy="78.1" rx="2.15" ry="1.24" style="fill:#263238"></ellipse><path d="M243.31,83.31a3.35,3.35,0,0,1,3.05,0,.92.92,0,0,1,0,1.75,3.35,3.35,0,0,1-3.05,0A.92.92,0,0,1,243.31,83.31Z" style="fill:#407BFF"></path><path d="M247.88,80.67a3.33,3.33,0,0,1,3,0c.85.48.85,1.27,0,1.76a3.39,3.39,0,0,1-3,0A.93.93,0,0,1,247.88,80.67Z" style="fill:#263238"></path><path d="M236.86,95.65v4.68a2.69,2.69,0,0,1-1.37-.3l-34-19.61a2.86,2.86,0,0,1-1.3-2.25V76.48a2.89,2.89,0,0,1,1.06-2.08c-.47.41-.39,1,.24,1.33l34,19.61A2.69,2.69,0,0,0,236.86,95.65Z" style="fill:#37474f"></path><path d="M230,59.12l0,0a1.14,1.14,0,0,1,1.46-.3L261,75.84a.87.87,0,0,1,.26,1.3l0,0a1.15,1.15,0,0,1-1.46.31L230.25,60.43A.88.88,0,0,1,230,59.12Z" style="fill:#263238"></path><path d="M230,59.12l0,0a1.14,1.14,0,0,1,1.46-.3l22,12.68-1.22,1.65-22-12.68A.88.88,0,0,1,230,59.12Z" style="fill:#407BFF"></path><path d="M232.43,55.84l0,0a1.14,1.14,0,0,1,1.46-.3l29.55,17.06a.87.87,0,0,1,.27,1.3l0,0a1.17,1.17,0,0,1-1.47.3L232.7,57.15A.88.88,0,0,1,232.43,55.84Z" style="fill:#263238"></path><path d="M232.43,55.84l0,0a1.14,1.14,0,0,1,1.46-.3l7.34,4.24L240,61.38l-7.34-4.23A.88.88,0,0,1,232.43,55.84Z" style="fill:#407BFF"></path><path d="M234.87,52.57l0,0a1.14,1.14,0,0,1,1.46-.3l29.55,17.06a.88.88,0,0,1,.27,1.31l0,0a1.16,1.16,0,0,1-1.46.3L235.14,53.87A.87.87,0,0,1,234.87,52.57Z" style="fill:#263238"></path><path d="M234.87,52.57l0,0a1.14,1.14,0,0,1,1.46-.3l15.39,8.86-1.22,1.64-15.39-8.85A.87.87,0,0,1,234.87,52.57Z" style="fill:#407BFF"></path><path d="M237.31,49.29l0,0a1.15,1.15,0,0,1,1.46-.31L268.36,66a.88.88,0,0,1,.26,1.31l0,0a1.14,1.14,0,0,1-1.46.3L237.58,50.59A.87.87,0,0,1,237.31,49.29Z" style="fill:#263238"></path><path d="M237.31,49.29l0,0a1.15,1.15,0,0,1,1.46-.31l26.83,15.49-1.23,1.64L237.58,50.59A.87.87,0,0,1,237.31,49.29Z" style="fill:#407BFF"></path></g><g id="freepik--server--inject-23"><path d="M184,323.57l10-5.79a4.79,4.79,0,0,1,4.33,0l59.52,34.37a2.21,2.21,0,0,0,3.31-1.91V301" style="fill:none;stroke:#407BFF;stroke-miterlimit:10"></path><path d="M179.91,321.22,194,313.09a4.79,4.79,0,0,1,4.33,0l63.58,36.71a2.21,2.21,0,0,0,3.31-1.91V301" style="fill:none;stroke:#407BFF;stroke-miterlimit:10"></path><path d="M175.85,318.87,194,308.4a4.79,4.79,0,0,1,4.33,0L266,347.46a2.2,2.2,0,0,0,3.3-1.91V301.29" style="fill:none;stroke:#407BFF;stroke-miterlimit:10"></path><path d="M171.78,316.53,194,303.71a4.79,4.79,0,0,1,4.33,0L270,345.11a2.2,2.2,0,0,0,3.3-1.91V301.29" style="fill:none;stroke:#407BFF;stroke-miterlimit:10"></path><path d="M116.82,113.75,52.09,151.12a4.78,4.78,0,0,0-2.16,3.75V332.79a4.8,4.8,0,0,0,2.16,3.75l64.73,37.37a4.79,4.79,0,0,0,4.33,0l64.72-37.37a4.78,4.78,0,0,0,2.17-3.75V154.87a4.78,4.78,0,0,0-2.17-3.75l-64.72-37.37A4.79,4.79,0,0,0,116.82,113.75Z" style="fill:#37474f"></path><path d="M188,154.86V332.79a4.8,4.8,0,0,1-2.16,3.75l-64.73,37.37a4.34,4.34,0,0,1-2.16.52V191.5a4.48,4.48,0,0,0,2.16-.52l64.73-37.37.59-.49.77-.64A4.49,4.49,0,0,1,188,154.86Z" style="fill:#263238"></path><path d="M60.22,172.38l48.48,28a4.78,4.78,0,0,1,2.16,3.75v18.45c0,1.38-1,1.94-2.17,1.25l-48.47-28a4.78,4.78,0,0,1-2.17-3.75V173.63C58.05,172.25,59,171.69,60.22,172.38Z" style="fill:#455a64"></path><path d="M62.12,180.51a4.62,4.62,0,0,0,2.16,3.59l40.35,23.3c1.2.69,2.17.2,2.17-1.09a4.64,4.64,0,0,0-2.17-3.6l-40.35-23.3C63.08,178.72,62.12,179.21,62.12,180.51Z" style="fill:#407BFF"></path><path d="M62.12,189.89a4.62,4.62,0,0,0,2.16,3.59l40.35,23.3c1.2.69,2.17.2,2.17-1.09a4.64,4.64,0,0,0-2.17-3.6l-40.35-23.3C63.08,188.1,62.12,188.59,62.12,189.89Z" style="fill:#263238"></path><path d="M64.28,188.79l22.21,12.83v4.69L64.28,193.48a4.62,4.62,0,0,1-2.16-3.59C62.12,188.59,63.08,188.1,64.28,188.79Z" style="fill:#407BFF"></path><path d="M60.22,205.21l48.48,28a4.8,4.8,0,0,1,2.16,3.75V255.4c0,1.38-1,1.94-2.17,1.25l-48.47-28a4.78,4.78,0,0,1-2.17-3.75V206.46C58.05,205.08,59,204.52,60.22,205.21Z" style="fill:#455a64"></path><path d="M62.12,213.34a4.63,4.63,0,0,0,2.16,3.6l40.35,23.29c1.2.69,2.17.2,2.17-1.09a4.64,4.64,0,0,0-2.17-3.6L64.28,212.25C63.08,211.56,62.12,212.05,62.12,213.34Z" style="fill:#407BFF"></path><path d="M62.12,222.72a4.63,4.63,0,0,0,2.16,3.6l40.35,23.3c1.2.69,2.17.2,2.17-1.1a4.65,4.65,0,0,0-2.17-3.6L64.28,221.63C63.08,220.94,62.12,221.43,62.12,222.72Z" style="fill:#263238"></path><path d="M64.28,221.63l34.39,19.85v4.69L64.28,226.32a4.63,4.63,0,0,1-2.16-3.6C62.12,221.43,63.08,220.94,64.28,221.63Z" style="fill:#407BFF"></path><path d="M60.22,238l48.48,28a4.8,4.8,0,0,1,2.16,3.75v18.45c0,1.38-1,1.94-2.17,1.25l-48.47-28a4.78,4.78,0,0,1-2.17-3.75V239.29C58.05,237.91,59,237.35,60.22,238Z" style="fill:#455a64"></path><path d="M62.12,246.17a4.63,4.63,0,0,0,2.16,3.6l40.35,23.3c1.2.69,2.17.2,2.17-1.1a4.64,4.64,0,0,0-2.17-3.59l-40.35-23.3C63.08,244.39,62.12,244.88,62.12,246.17Z" style="fill:#407BFF"></path><path d="M62.12,255.56a4.62,4.62,0,0,0,2.16,3.59l40.35,23.3c1.2.69,2.17.2,2.17-1.1a4.64,4.64,0,0,0-2.17-3.59l-40.35-23.3C63.08,253.77,62.12,254.26,62.12,255.56Z" style="fill:#263238"></path><path d="M64.28,254.46l14.08,8.13v4.69l-14.08-8.13a4.62,4.62,0,0,1-2.16-3.59C62.12,254.26,63.08,253.77,64.28,254.46Z" style="fill:#407BFF"></path><path d="M60.22,270.88l48.48,28a4.8,4.8,0,0,1,2.16,3.75v18.46c0,1.38-1,1.94-2.17,1.25l-48.47-28a4.78,4.78,0,0,1-2.17-3.75V272.13C58.05,270.75,59,270.19,60.22,270.88Z" style="fill:#455a64"></path><path d="M62.12,279a4.62,4.62,0,0,0,2.16,3.59l40.35,23.3c1.2.69,2.17.2,2.17-1.09a4.64,4.64,0,0,0-2.17-3.6l-40.35-23.3C63.08,277.22,62.12,277.71,62.12,279Z" style="fill:#407BFF"></path><path d="M62.12,288.39A4.62,4.62,0,0,0,64.28,292l40.35,23.3c1.2.69,2.17.2,2.17-1.09a4.64,4.64,0,0,0-2.17-3.6l-40.35-23.3C63.08,286.6,62.12,287.09,62.12,288.39Z" style="fill:#263238"></path><path d="M64.28,287.29l22.21,12.83v4.69L64.28,292a4.62,4.62,0,0,1-2.16-3.59C62.12,287.09,63.08,286.6,64.28,287.29Z" style="fill:#407BFF"></path><path d="M60.22,303.71l48.48,28a4.8,4.8,0,0,1,2.16,3.75V353.9c0,1.38-1,1.94-2.17,1.25l-48.47-28a4.78,4.78,0,0,1-2.17-3.75V305C58.05,303.58,59,303,60.22,303.71Z" style="fill:#455a64"></path><path d="M62.12,311.84a4.63,4.63,0,0,0,2.16,3.6l40.35,23.29c1.2.69,2.17.2,2.17-1.09a4.64,4.64,0,0,0-2.17-3.6L64.28,310.75C63.08,310.06,62.12,310.55,62.12,311.84Z" style="fill:#407BFF"></path><path d="M62.12,321.22a4.63,4.63,0,0,0,2.16,3.6l40.35,23.29c1.2.69,2.17.2,2.17-1.09a4.64,4.64,0,0,0-2.17-3.6L64.28,320.13C63.08,319.44,62.12,319.93,62.12,321.22Z" style="fill:#263238"></path><path d="M64.28,320.13l30.33,17.51v4.69L64.28,324.82a4.63,4.63,0,0,1-2.16-3.6C62.12,319.93,63.08,319.44,64.28,320.13Z" style="fill:#407BFF"></path><path d="M129.14,202.8c2.24-1.3,4.06-.12,4.06,2.64V312.71a9.31,9.31,0,0,1-4.06,7.36c-2.24,1.3-4.06.12-4.06-2.65V210.15A9.31,9.31,0,0,1,129.14,202.8Z" style="fill:#37474f"></path><path d="M129.14,317.69a4.63,4.63,0,0,0,2-3.67V206.45c0-1.38-.91-2-2-1.33a4.66,4.66,0,0,0-2,3.68V316.37C127.11,317.75,128,318.34,129.14,317.69Z" style="fill:#263238"></path><path d="M129.14,317.69a4.63,4.63,0,0,0,2-3.67V262.59l-4.06,2.35v51.43C127.11,317.75,128,318.34,129.14,317.69Z" style="fill:#407BFF"></path><path d="M141.33,195.76c2.24-1.3,4.06-.11,4.06,2.65V305.68a9.31,9.31,0,0,1-4.06,7.35c-2.25,1.3-4.07.12-4.07-2.64V203.12A9.31,9.31,0,0,1,141.33,195.76Z" style="fill:#37474f"></path><path d="M141.33,310.66a4.65,4.65,0,0,0,2-3.67V199.42c0-1.39-.91-2-2-1.33a4.65,4.65,0,0,0-2,3.67V309.33C139.29,310.71,140.2,311.31,141.33,310.66Z" style="fill:#407BFF"></path><path d="M153.51,188.73c2.24-1.3,4.06-.12,4.06,2.64V298.64a9.3,9.3,0,0,1-4.06,7.36c-2.24,1.3-4.06.11-4.06-2.65V196.08A9.31,9.31,0,0,1,153.51,188.73Z" style="fill:#37474f"></path><path d="M153.51,303.62a4.63,4.63,0,0,0,2-3.67V192.38c0-1.38-.91-2-2-1.33a4.65,4.65,0,0,0-2,3.68V302.3C151.48,303.68,152.39,304.27,153.51,303.62Z" style="fill:#263238"></path><path d="M153.51,303.62a4.63,4.63,0,0,0,2-3.67V216.86l-4.06,2.34v83.1C151.48,303.68,152.39,304.27,153.51,303.62Z" style="fill:#407BFF"></path><path d="M165.7,181.69c2.24-1.3,4.06-.11,4.06,2.65V291.61A9.31,9.31,0,0,1,165.7,299c-2.25,1.3-4.06.12-4.06-2.64V189.05A9.29,9.29,0,0,1,165.7,181.69Z" style="fill:#37474f"></path><path d="M165.7,296.59a4.65,4.65,0,0,0,2-3.67V185.34c0-1.38-.91-2-2-1.32a4.63,4.63,0,0,0-2,3.67V295.26C163.67,296.64,164.58,297.24,165.7,296.59Z" style="fill:#263238"></path><path d="M165.7,296.59a4.65,4.65,0,0,0,2-3.67V274.76l-4.06,2.35v18.15C163.67,296.64,164.58,297.24,165.7,296.59Z" style="fill:#407BFF"></path><path d="M177.88,174.66c2.25-1.3,4.07-.12,4.07,2.64V284.57a9.31,9.31,0,0,1-4.07,7.36c-2.24,1.3-4.06.11-4.06-2.65V182A9.31,9.31,0,0,1,177.88,174.66Z" style="fill:#37474f"></path><path d="M177.88,289.55a4.61,4.61,0,0,0,2-3.67V178.31c0-1.38-.91-2-2-1.33a4.65,4.65,0,0,0-2,3.67V288.23C175.85,289.61,176.76,290.2,177.88,289.55Z" style="fill:#263238"></path><path d="M177.88,289.55a4.61,4.61,0,0,0,2-3.67V229.76l-4.06,2.34v56.13C175.85,289.61,176.76,290.2,177.88,289.55Z" style="fill:#407BFF"></path><path d="M126.81,333.12l53.4-30.83c1-.56,1.74-.11,1.74,1v19.45a3.83,3.83,0,0,1-1.74,3l-53.4,30.83c-1,.56-1.73.11-1.73-1V336.12A3.82,3.82,0,0,1,126.81,333.12Z" style="fill:#37474f"></path><path d="M129,338.89c0,1.29,1,1.78,2.17,1.09l44.68-25.8a4.64,4.64,0,0,0,2.17-3.6c0-1.29-1-1.78-2.17-1.09l-44.68,25.8A4.64,4.64,0,0,0,129,338.89Z" style="fill:#263238"></path><path d="M129,338.89c0,1.29,1,1.78,2.17,1.09l32.5-18.77v-4.69l-32.5,18.77A4.64,4.64,0,0,0,129,338.89Z" style="fill:#407BFF"></path><path d="M129,348.27c0,1.29,1,1.79,2.17,1.09l44.68-25.8A4.64,4.64,0,0,0,178,320c0-1.29-1-1.78-2.17-1.09l-44.68,25.8A4.64,4.64,0,0,0,129,348.27Z" style="fill:#263238"></path><path d="M129,348.27c0,1.29,1,1.79,2.17,1.09l12.19-7v-4.69l-12.19,7A4.64,4.64,0,0,0,129,348.27Z" style="fill:#407BFF"></path><path d="M185.87,151.12l-64.72-37.37a4.79,4.79,0,0,0-4.33,0L52.09,151.12a1.32,1.32,0,0,0,0,2.5L116.82,191a4.76,4.76,0,0,0,4.33,0l64.72-37.36A1.32,1.32,0,0,0,185.87,151.12Z" style="fill:#455a64"></path><path d="M117.68,182.1l-50.2-29a2.89,2.89,0,0,1-1.3-2.25v-1.69a2.86,2.86,0,0,1,1.3-2.25l50.2-29a2.84,2.84,0,0,1,2.6,0l50.21,29a2.86,2.86,0,0,1,1.3,2.25v1.69a2.89,2.89,0,0,1-1.3,2.25l-50.21,29A2.84,2.84,0,0,1,117.68,182.1Z" style="fill:#263238"></path><path d="M67.48,148.43l50.2,29a2.84,2.84,0,0,0,2.6,0l50.21-29c.72-.42.72-1.09,0-1.5l-50.21-28a2.84,2.84,0,0,0-2.6,0l-50.2,28C66.76,147.34,66.76,148,67.48,148.43Z" style="fill:#455a64"></path><path d="M119,177.72v4.69a2.63,2.63,0,0,1-1.3-.31l-50.21-29a2.86,2.86,0,0,1-1.3-2.25v-1.69a2.89,2.89,0,0,1,1.06-2.08c-.47.41-.39,1,.24,1.33l50.21,29A2.63,2.63,0,0,0,119,177.72Z" style="fill:#37474f"></path><path d="M117.68,168l-34-19.6a2.9,2.9,0,0,1-1.29-2.25v-1.7a2.9,2.9,0,0,1,1.29-2.25l21.78-12.57a8.5,8.5,0,0,0,2.19-2l10.4-14a1.72,1.72,0,0,1,2.19-.45l34,19.6a2.87,2.87,0,0,1,1.3,2.25v11.08a2.89,2.89,0,0,1-1.3,2.25l-34,19.6A2.84,2.84,0,0,1,117.68,168Z" style="fill:#263238"></path><path d="M120.28,163.34l21.78-12.57a8.71,8.71,0,0,0,2.19-2l10.4-14a1.31,1.31,0,0,0-.41-2l-34-19.6a1.72,1.72,0,0,0-2.19.45l-10.4,14a8.08,8.08,0,0,1-2,2l-22,12.49a.79.79,0,0,0,0,1.5l34,19.61A2.84,2.84,0,0,0,120.28,163.34Z" style="fill:#455a64"></path><path d="M154.24,132.85l-34-19.6a1.72,1.72,0,0,0-2.19.45l-10.4,14a8.28,8.28,0,0,1-1.06,1.11s36.55,21.11,36.56,21.1a8.25,8.25,0,0,0,1.06-1.1l10.4-14A1.31,1.31,0,0,0,154.24,132.85Z" style="fill:#37474f"></path><path d="M92,142.58a3.35,3.35,0,0,1,3.05,0,.93.93,0,0,1,0,1.76,3.41,3.41,0,0,1-3.05,0A.93.93,0,0,1,92,142.58Z" style="fill:#407BFF"></path><path d="M98.06,146.1a3.33,3.33,0,0,1,3,0,.93.93,0,0,1,0,1.76,3.39,3.39,0,0,1-3,0A.93.93,0,0,1,98.06,146.1Z" style="fill:#407BFF"></path><path d="M104.15,149.61a3.41,3.41,0,0,1,3,0,.93.93,0,0,1,0,1.76,3.35,3.35,0,0,1-3,0A.93.93,0,0,1,104.15,149.61Z" style="fill:#263238"></path><path d="M110.24,153.13a3.41,3.41,0,0,1,3.05,0,.93.93,0,0,1,0,1.76,3.35,3.35,0,0,1-3.05,0A.93.93,0,0,1,110.24,153.13Z" style="fill:#263238"></path><path d="M96.53,139.94a3.35,3.35,0,0,1,3,0,.93.93,0,0,1,0,1.76,3.35,3.35,0,0,1-3,0A.93.93,0,0,1,96.53,139.94Z" style="fill:#407BFF"></path><ellipse cx="104.15" cy="144.34" rx="2.15" ry="1.24" style="fill:#263238"></ellipse><path d="M108.72,147a3.35,3.35,0,0,1,3,0,.92.92,0,0,1,0,1.75,3.35,3.35,0,0,1-3,0A.92.92,0,0,1,108.72,147Z" style="fill:#407BFF"></path><ellipse cx="116.34" cy="151.37" rx="2.15" ry="1.24" style="fill:#263238"></ellipse><path d="M101.1,137.3a3.41,3.41,0,0,1,3.05,0,.93.93,0,0,1,0,1.76,3.35,3.35,0,0,1-3.05,0A.93.93,0,0,1,101.1,137.3Z" style="fill:#263238"></path><path d="M107.2,140.82a3.33,3.33,0,0,1,3,0,.93.93,0,0,1,0,1.76,3.39,3.39,0,0,1-3,0A.93.93,0,0,1,107.2,140.82Z" style="fill:#407BFF"></path><path d="M113.29,144.34a3.35,3.35,0,0,1,3,0,.93.93,0,0,1,0,1.76,3.41,3.41,0,0,1-3,0A.93.93,0,0,1,113.29,144.34Z" style="fill:#263238"></path><path d="M116.37,156.58a3.35,3.35,0,0,1,3,0,.93.93,0,0,1,0,1.76,3.41,3.41,0,0,1-3,0A.93.93,0,0,1,116.37,156.58Z" style="fill:#407BFF"></path><path d="M120.94,153.94a3.41,3.41,0,0,1,3,0,.93.93,0,0,1,0,1.76,3.35,3.35,0,0,1-3,0A.93.93,0,0,1,120.94,153.94Z" style="fill:#263238"></path><path d="M119.38,147.86a3.35,3.35,0,0,1,3.05,0,.93.93,0,0,1,0,1.76,3.41,3.41,0,0,1-3.05,0A.93.93,0,0,1,119.38,147.86Z" style="fill:#263238"></path><ellipse cx="107.2" cy="135.55" rx="2.15" ry="1.24" style="fill:#407BFF"></ellipse><path d="M111.77,138.18a3.39,3.39,0,0,1,3,0,.93.93,0,0,1,0,1.76,3.33,3.33,0,0,1-3,0C110.92,139.46,110.92,138.67,111.77,138.18Z" style="fill:#263238"></path><ellipse cx="119.38" cy="142.58" rx="2.15" ry="1.24" style="fill:#407BFF"></ellipse><path d="M124,145.22a3.35,3.35,0,0,1,3,0,.93.93,0,0,1,0,1.76,3.41,3.41,0,0,1-3,0A.93.93,0,0,1,124,145.22Z" style="fill:#263238"></path><path d="M125.51,151.31a3.35,3.35,0,0,1,3,0,.92.92,0,0,1,0,1.75,3.35,3.35,0,0,1-3,0A.92.92,0,0,1,125.51,151.31Z" style="fill:#407BFF"></path><ellipse cx="131.6" cy="149.55" rx="2.15" ry="1.24" style="fill:#263238"></ellipse><path d="M119.06,163.65v4.68a2.69,2.69,0,0,1-1.37-.3l-34-19.61a2.86,2.86,0,0,1-1.3-2.25v-1.69a2.89,2.89,0,0,1,1.06-2.08c-.47.41-.39,1,.24,1.33l34,19.61A2.69,2.69,0,0,0,119.06,163.65Z" style="fill:#37474f"></path><path d="M112.18,127.12l0,0a1.14,1.14,0,0,1,1.46-.3l29.56,17.06a.87.87,0,0,1,.26,1.3l0,.05a1.16,1.16,0,0,1-1.46.3l-29.55-17.06A.88.88,0,0,1,112.18,127.12Z" style="fill:#263238"></path><path d="M112.18,127.12l0,0a1.14,1.14,0,0,1,1.46-.3l22,12.68-1.22,1.65-22-12.68A.88.88,0,0,1,112.18,127.12Z" style="fill:#407BFF"></path><path d="M114.63,123.84l0,0a1.14,1.14,0,0,1,1.46-.3l29.55,17.06a.87.87,0,0,1,.27,1.3l0,0a1.17,1.17,0,0,1-1.47.3L114.9,125.15A.88.88,0,0,1,114.63,123.84Z" style="fill:#263238"></path><path d="M114.63,123.84l0,0a1.14,1.14,0,0,1,1.46-.3l7.34,4.24-1.22,1.64-7.34-4.23A.88.88,0,0,1,114.63,123.84Z" style="fill:#407BFF"></path><path d="M117.07,120.57l0,0a1.14,1.14,0,0,1,1.46-.31l29.55,17.06a.88.88,0,0,1,.27,1.31l0,0a1.16,1.16,0,0,1-1.46.3l-29.55-17.06A.87.87,0,0,1,117.07,120.57Z" style="fill:#263238"></path><path d="M117.07,120.57l0,0a1.14,1.14,0,0,1,1.46-.31L134,129.08l-1.22,1.64-15.39-8.85A.87.87,0,0,1,117.07,120.57Z" style="fill:#407BFF"></path><path d="M119.51,117.29l0,0a1.15,1.15,0,0,1,1.46-.31L150.56,134a.87.87,0,0,1,.26,1.3l0,0a1.14,1.14,0,0,1-1.46.3l-29.55-17.06A.87.87,0,0,1,119.51,117.29Z" style="fill:#263238"></path><path d="M119.51,117.29l0,0a1.15,1.15,0,0,1,1.46-.31l26.83,15.49-1.23,1.64-26.82-15.48A.87.87,0,0,1,119.51,117.29Z" style="fill:#407BFF"></path></g></g><g id="freepik--Desk--inject-23"><g id="freepik--desk--inject-23"><g id="freepik--desk--inject-23"><path d="M256.52,308.8v54.77a1.42,1.42,0,0,0,.65,1.12L309.67,395a1.42,1.42,0,0,0,1.3,0l1.75-1a1.48,1.48,0,0,0,.65-1.13V338.06a.76.76,0,0,0-.75-.75l-55.35-29.26A.76.76,0,0,0,256.52,308.8Z" style="fill:#fafafa"></path><path d="M312.62,337.31h-1.55a.75.75,0,0,0-.75.75v56.53c0,.41.29.58.65.37l1.75-1a1.48,1.48,0,0,0,.65-1.13V338.06A.76.76,0,0,0,312.62,337.31Z" style="fill:#f5f5f5"></path><path d="M361.07,246.05v54.76a1.44,1.44,0,0,0,.65,1.13l54.57,31.48a1.48,1.48,0,0,0,1.3,0l1.74-1a1.44,1.44,0,0,0,.65-1.13V276.52a.74.74,0,0,0-.75-.75L361.82,245.3A.74.74,0,0,0,361.07,246.05Z" style="fill:#e0e0e0"></path><path d="M419.23,275.77h-1.54a.74.74,0,0,0-.75.75V333c0,.42.29.58.65.38l1.74-1a1.44,1.44,0,0,0,.65-1.13V276.52A.74.74,0,0,0,419.23,275.77Z" style="fill:#ebebeb"></path><path d="M251.4,307.08v-.51a2.88,2.88,0,0,1,1.3-2.25l110.13-63.58a2.82,2.82,0,0,1,2.59,0l58.34,33.67a2.91,2.91,0,0,1,1.3,2.25v.52a2.88,2.88,0,0,1-1.3,2.25L313.63,343a2.82,2.82,0,0,1-2.59,0L252.7,309.33A2.88,2.88,0,0,1,251.4,307.08Z" style="fill:#f5f5f5"></path><path d="M312.34,339.81v3.52A2.74,2.74,0,0,1,311,343l-58.33-33.68a2.87,2.87,0,0,1-1.3-2.25v-.52a2.87,2.87,0,0,1,1.06-2.08c-.47.4-.39,1,.24,1.33L311,339.5A2.63,2.63,0,0,0,312.34,339.81Z" style="fill:#ebebeb"></path><path d="M252.7,305.82,311,339.49a2.82,2.82,0,0,0,2.59,0l110.13-63.58a.79.79,0,0,0,0-1.5l-58.34-33.67a2.82,2.82,0,0,0-2.59,0L252.7,304.32A.79.79,0,0,0,252.7,305.82Z" style="fill:#fafafa"></path><path d="M346.72,282.3l33-19.07a2.29,2.29,0,0,1,2.13,0l10.44,6.09c.59.34.59.89,0,1.24l-33,19.07a2.35,2.35,0,0,1-2.13,0l-10.44-6.1A.65.65,0,0,1,346.72,282.3Z" style="fill:#ebebeb"></path><path d="M352.57,270.47l0,0-3.5-2a.53.53,0,0,1,0-1l27.41-15.82a.53.53,0,0,0,0-1l-.28-.17a2,2,0,0,0-1.74,0L347.8,265.82c-.47.28-.92.3-.93.05a1.75,1.75,0,0,1,0-.46l1.51-7.82a1.49,1.49,0,0,0-.68-1.47l-.28-.16a.66.66,0,0,0-1.05.48l-1.74,9.08a2.85,2.85,0,0,0,0,1A1.45,1.45,0,0,1,344,268l-16.62,9.6c-.48.27-.48.72,0,1l.28.16a1.91,1.91,0,0,0,1.74,0l15.88-9.17a3.47,3.47,0,0,1,.94-.45l.07,0,5.4,3.12a1.89,1.89,0,0,0,1.73,0l11.3-6.5c.48-.28.64-.63.36-.79a1.84,1.84,0,0,0-1.42.14l-10.2,4.91C353,270.29,352.58,270.48,352.57,270.47Z" style="fill:#ebebeb"></path></g><g id="freepik--Device--inject-23"><g id="freepik--Keyboard--inject-23"><path d="M381.69,260.7l9.88,5.7a2,2,0,0,1,0,3.55l-31.9,18.41a2.37,2.37,0,0,1-2.14,0l-9.87-5.7a2,2,0,0,1,0-3.54l31.9-18.42A2.35,2.35,0,0,1,381.69,260.7Z" style="fill:#37474f"></path><path d="M358.6,288.62a2.23,2.23,0,0,1-1.07-.26l-9.87-5.7a2,2,0,0,1,0-3.54l1-.6h9.92Z" style="fill:#263238"></path><path d="M347.65,279.12l31.9-18.42a2.37,2.37,0,0,1,2.14,0l9.87,5.7a.65.65,0,0,1,0,1.23l-31.9,18.42a2.35,2.35,0,0,1-2.13,0l-9.88-5.7A.65.65,0,0,1,347.65,279.12Z" style="fill:#455a64"></path><path d="M376.81,269.2l1-.58c.05,0,0-.07,0-.1l-1.16-.67a.22.22,0,0,0-.16,0l-1,.58s0,.07,0,.09l1.16.67A.18.18,0,0,0,376.81,269.2Zm-2-2.31-1,.58s0,.07,0,.09l1.16.67a.18.18,0,0,0,.16,0l1-.58s0-.07,0-.09L375,266.9A.18.18,0,0,0,374.83,266.89Zm-3.25,1.88-1.7,1s0,.06,0,.09l1.16.67a.15.15,0,0,0,.16,0l1.7-1s0-.06,0-.09l-1.16-.67A.15.15,0,0,0,371.58,268.77Zm1.78-1-1,.58c-.05,0,0,.07,0,.09l1.16.67a.18.18,0,0,0,.16,0l1-.58s0-.07,0-.1l-1.16-.67A.18.18,0,0,0,373.36,267.74ZM369.42,270l-1,.58s0,.07,0,.1l1.16.67a.18.18,0,0,0,.16,0l1-.58s0-.07,0-.09l-1.16-.67A.18.18,0,0,0,369.42,270Zm-1.47.85-1,.58c-.05,0,0,.07,0,.09l1.16.67a.18.18,0,0,0,.16,0l1-.58s0-.07,0-.09l-1.16-.67A.18.18,0,0,0,368,270.86Zm4.57,2.73,1-.58c.05,0,0-.07,0-.09l-1.16-.67a.18.18,0,0,0-.16,0l-1,.58s0,.07,0,.09l1.16.68A.22.22,0,0,0,372.52,273.59Zm-1.47.85,1-.58s0-.07,0-.1l-1.16-.67a.22.22,0,0,0-.16,0l-1,.58s0,.07,0,.09l1.16.67A.18.18,0,0,0,371.05,274.44Zm-1.47.84,1-.58s0-.06,0-.09l-1.16-.67a.15.15,0,0,0-.16,0l-1,.58c-.05,0,0,.06,0,.09l1.16.67A.15.15,0,0,0,369.58,275.28Zm-1.46.85,1-.58s0-.06,0-.09l-1.16-.67a.15.15,0,0,0-.16,0l-1,.57a.06.06,0,0,0,0,.1l1.17.67A.18.18,0,0,0,368.12,276.13Zm7.22-6.09,1-.58s0-.06,0-.09l-1.16-.67a.15.15,0,0,0-.16,0l-1,.58s0,.06,0,.09l1.16.67A.15.15,0,0,0,375.34,270Zm-1.35,2.7,2.24-1.29s0-.07,0-.1l-2.82-1.62a.18.18,0,0,0-.16,0l-1.16.67s0,.07,0,.09l1.49.87c.05,0,.05.06,0,.09l-.93.53s0,.07,0,.1l1.16.67A.18.18,0,0,0,374,272.74Zm-7.51-1-1,.58a0,0,0,0,0,0,.09l1.17.67a.18.18,0,0,0,.16,0l1-.58s0-.07,0-.1l-1.16-.67A.18.18,0,0,0,366.48,271.71Zm-1.46.85-1,.58s0,.06,0,.09l1.16.67a.15.15,0,0,0,.16,0l1-.58c.05,0,0-.06,0-.09l-1.16-.67A.15.15,0,0,0,365,272.56Zm-7.34,9.5a.15.15,0,0,0,.16,0l1-.58c.05,0,0-.06,0-.09l-1.16-.67a.15.15,0,0,0-.16,0l-1,.58s0,.06,0,.09Zm-4.41-2.72-1,.58s0,.06,0,.09l1.16.67a.15.15,0,0,0,.16,0l1-.58s0-.06,0-.09l-1.16-.67A.15.15,0,0,0,353.27,279.34Zm2.36,2a.22.22,0,0,0,.16,0l1-.58s0-.07,0-.09l-1.16-.67a.18.18,0,0,0-.16,0l-1,.58c-.05,0,0,.07,0,.1Zm4.64,1.25,1-.58s0-.07,0-.1l-1.16-.67a.22.22,0,0,0-.16,0l-1,.58s0,.07,0,.09l1.16.67A.18.18,0,0,0,360.27,282.58Zm-1.63.84a.15.15,0,0,0,.16,0l1-.58s0-.06,0-.09l-1.16-.67a.15.15,0,0,0-.16,0l-1,.58c-.05,0,0,.06,0,.09Zm-3.9-4.93-1,.58s0,.07,0,.09l1.16.67a.18.18,0,0,0,.16,0l1-.58s0-.07,0-.1l-1.16-.67A.22.22,0,0,0,354.74,278.49Zm7.34-4.24-1,.58s0,.07,0,.09l1.16.68a.22.22,0,0,0,.16,0l1-.58s0-.07,0-.09l-1.16-.67A.18.18,0,0,0,362.08,274.25Zm-5.87,3.39-1,.58s0,.07,0,.09l1.16.68a.22.22,0,0,0,.16,0l1-.58c.05,0,0-.07,0-.09l-1.16-.67A.18.18,0,0,0,356.21,277.64Zm7.34-4.24-1,.58s0,.07,0,.1l1.16.67a.18.18,0,0,0,.16,0l1-.58c.05,0,0-.07,0-.09l-1.16-.67A.18.18,0,0,0,363.55,273.4Zm-2.94,1.7-1,.58c-.05,0,0,.07,0,.09l1.16.67a.18.18,0,0,0,.16,0l1-.58s0-.07,0-.1l-1.16-.67A.18.18,0,0,0,360.61,275.1Zm-1.47.85-1,.58s0,.06,0,.09l1.17.67a.15.15,0,0,0,.16,0l1-.58s0-.06,0-.09L359.3,276A.15.15,0,0,0,359.14,276Zm-1.46.84-1,.58s0,.07,0,.1l1.16.67a.18.18,0,0,0,.16,0l1-.58c.05,0,0-.07,0-.09l-1.16-.67A.18.18,0,0,0,357.68,276.79Zm7.5,1,1-.58c.05,0,0-.07,0-.1l-1.16-.67a.22.22,0,0,0-.16,0l-1,.58s0,.07,0,.09l1.16.67A.18.18,0,0,0,365.18,277.83ZM378.07,265l-1,.58s0,.06,0,.09l1.17.67a.15.15,0,0,0,.16,0l1-.58s0-.06,0-.09l-1.16-.67A.15.15,0,0,0,378.07,265Zm-1.77,1-1,.58s0,.07,0,.1l1.16.67a.18.18,0,0,0,.16,0l1-.58c.05,0,0-.07,0-.09l-1.16-.67A.18.18,0,0,0,376.3,266Zm3.24-1.87-1,.58c-.05,0,0,.07,0,.09l1.16.67a.18.18,0,0,0,.16,0l1-.58s0-.07,0-.1l-1.16-.67A.22.22,0,0,0,379.54,264.17Zm-7.6,7.84,1-.58s0-.07,0-.1l-1.16-.67a.22.22,0,0,0-.16,0l-1,.58s0,.07,0,.09l1.16.67A.18.18,0,0,0,371.94,272Zm9.23-8.68a.18.18,0,0,0-.16,0l-1,.58s0,.07,0,.1l1.16.67a.22.22,0,0,0,.16,0l1-.58s0-.07,0-.09ZM366.65,277l1-.58s0-.07,0-.09l-1.16-.67a.2.2,0,0,0-.17,0l-1,.58s0,.07,0,.1l1.16.67A.22.22,0,0,0,366.65,277Zm18-10.39,1-.58c.05,0,0-.07,0-.1l-1.16-.67a.18.18,0,0,0-.16,0l-1,.58s0,.07,0,.09l1.16.67A.18.18,0,0,0,384.65,266.59Zm-3.13-.12,1-.58s0-.06,0-.09l-1.16-.67a.18.18,0,0,0-.16,0l-1,.58c-.05,0,0,.06,0,.09l1.16.67A.15.15,0,0,0,381.52,266.47Zm1.31-2.19a.22.22,0,0,0-.16,0l-1,.58s0,.07,0,.09l1.16.67a.18.18,0,0,0,.16,0l1-.58s0-.07,0-.1Zm.31-.17,2.82,1.62a.18.18,0,0,0,.16,0l1-.58c.05,0,0-.07,0-.09l-2.82-1.63a.18.18,0,0,0-.16,0l-1,.58S383.09,264.08,383.14,264.11ZM379.73,266l-1,.58c-.05,0,0,.06,0,.09l1.16.67a.15.15,0,0,0,.16,0l1-.58s0-.06,0-.09l-1.16-.67A.15.15,0,0,0,379.73,266Zm-11.05,6.37-1,.59s0,.06,0,.09l1.17.67a.18.18,0,0,0,.16,0l1-.58s0-.06,0-.09l-1.16-.67A.18.18,0,0,0,368.68,272.35ZM383,267.43a.15.15,0,0,0,.16,0l1-.58s0-.06,0-.09l-1.16-.67a.15.15,0,0,0-.16,0l-1,.58s0,.06,0,.09Zm-12.87,4.08-1,.58s0,.06,0,.09l1.16.67a.15.15,0,0,0,.16,0l1-.58s0-.06,0-.09l-1.16-.67A.15.15,0,0,0,370.15,271.51Zm-11,9.7a.18.18,0,0,0,.16,0l1-.58a.06.06,0,0,0,0-.1l-1.16-.67a.25.25,0,0,0-.17,0l-1,.58s0,.07,0,.09Zm-2.21-2.07-1,.58s0,.06,0,.09l1.16.67a.18.18,0,0,0,.16,0l1-.58s0-.06,0-.09l-1.16-.67A.15.15,0,0,0,356.94,279.14Zm3.84,1.23,1-.58s0-.07,0-.09l-1.16-.67a.18.18,0,0,0-.16,0l-1,.58a.06.06,0,0,0,0,.1l1.17.67A.22.22,0,0,0,360.78,280.37Zm1.46-.85,1-.58s0-.06,0-.09l-1.16-.67a.15.15,0,0,0-.16,0l-1,.58c-.05,0,0,.06,0,.09l1.16.67A.18.18,0,0,0,362.24,279.52Zm1.47-.85,1-.58s0-.06,0-.09l-1.16-.67a.15.15,0,0,0-.16,0l-1,.58s0,.06,0,.09l1.16.67A.15.15,0,0,0,363.71,278.67Zm-5.3-.38-1,.58s0,.06,0,.09l1.16.67a.15.15,0,0,0,.16,0l1-.58s0-.06,0-.09l-1.16-.67A.15.15,0,0,0,358.41,278.29Zm1.47-.85-1,.58s0,.07,0,.09l1.16.67a.18.18,0,0,0,.16,0l1-.58c.05,0,0-.07,0-.1l-1.16-.67A.22.22,0,0,0,359.88,277.44Zm5.87-3.39-1,.58s0,.07,0,.09l1.16.67a.18.18,0,0,0,.16,0l1-.58c.05,0,0-.07,0-.1l-1.16-.67A.22.22,0,0,0,365.75,274.05Zm-1.47.85-1,.58s0,.06,0,.09l1.16.67a.15.15,0,0,0,.16,0l1-.58s0-.06,0-.09l-1.16-.67A.15.15,0,0,0,364.28,274.9Zm2.94-1.7-1,.58s0,.07,0,.1l1.16.67a.22.22,0,0,0,.16,0l1-.58s0-.07,0-.09l-1.16-.67A.18.18,0,0,0,367.22,273.2Zm-5.88,3.39-1,.58a.06.06,0,0,0,0,.1l1.17.67a.22.22,0,0,0,.16,0l1-.58s0-.07,0-.09l-1.17-.67A.18.18,0,0,0,361.34,276.59Zm1.47-.84-1,.58c-.05,0,0,.06,0,.09l1.16.67a.18.18,0,0,0,.16,0l1-.58s0-.06,0-.09l-1.16-.67A.15.15,0,0,0,362.81,275.75Zm-1.07,6,1-.58c.05,0,0-.07,0-.09l-1.16-.67a.18.18,0,0,0-.16,0l-1,.58s0,.07,0,.09l1.16.68A.22.22,0,0,0,361.74,281.73Zm-8.61-.87-1.17-.67a.18.18,0,0,0-.16,0l-1,.58a.06.06,0,0,0,0,.1l1.17.67a.18.18,0,0,0,.16,0l1-.58S353.17,280.89,353.13,280.86Zm2.19.64-1.16-.67a.22.22,0,0,0-.16,0l-1.54.89a.06.06,0,0,0,0,.1l1.17.67a.22.22,0,0,0,.16,0l1.54-.89S355.37,281.53,355.32,281.5Zm-4-1.94-1.16-.67a.18.18,0,0,0-.16,0l-1.23.71c-.05,0,0,.07,0,.09l1.16.68a.22.22,0,0,0,.16,0l1.24-.72S351.39,279.59,351.34,279.56Zm1-.54a.22.22,0,0,0,.16,0l1-.58s0-.07,0-.09l-1.16-.67a.18.18,0,0,0-.16,0l-1,.58s0,.07,0,.09Zm5.08,3.22-1.16-.67a.15.15,0,0,0-.16,0l-1.93,1.11c-.05,0,0,.07,0,.09l1.16.67a.18.18,0,0,0,.16,0l1.94-1.12S357.42,282.27,357.37,282.24Zm1,1.36-1.16-.67a.18.18,0,0,0-.16,0l-1.23.72s0,.06,0,.09l1.16.67a.15.15,0,0,0,.16,0l1.24-.71S358.38,283.63,358.33,283.6Zm4.88-10.89a.18.18,0,0,0,.16,0l1-.58s0-.07,0-.1l-1.16-.67a.22.22,0,0,0-.16,0l-1,.58s0,.07,0,.09Zm-2.94,1.7a.15.15,0,0,0,.16,0l1-.58c.05,0,0-.06,0-.09l-1.16-.67a.15.15,0,0,0-.16,0l-1,.58s0,.06,0,.09Zm-6.51,3.76a.18.18,0,0,0,.16,0l1-.58c.05,0,0-.07,0-.09l-1.16-.67a.18.18,0,0,0-.16,0l-1,.58s0,.07,0,.1Zm8-4.61a.15.15,0,0,0,.16,0l1-.58s0-.06,0-.09l-1.16-.67a.17.17,0,0,0-.17,0l-1,.58s0,.06,0,.09Zm-2.94,1.7a.22.22,0,0,0,.16,0l1-.58s0-.07,0-.09l-1.16-.67a.18.18,0,0,0-.16,0l-1,.58s0,.07,0,.1Zm.34,8.45a.18.18,0,0,0-.16,0l-1.54.9c-.05,0,0,.06,0,.09l1.16.67a.15.15,0,0,0,.16,0l1.55-.89s0-.07,0-.09Zm-2.45-7.24a.18.18,0,0,0,.16,0l1-.58s0-.07,0-.1l-1.16-.67a.18.18,0,0,0-.16,0l-1,.58s0,.07,0,.09Zm-1.46.85a.15.15,0,0,0,.16,0l1-.58s0-.06,0-.09l-1.17-.67a.15.15,0,0,0-.16,0l-1,.58s0,.06,0,.09ZM386.34,268a.18.18,0,0,0-.16,0l-2.47,1.43s0,.07,0,.09l1.16.67a.18.18,0,0,0,.16,0l2.47-1.43c.05,0,.05-.07,0-.09Zm-3.25,1.87a.15.15,0,0,0-.16,0l-1,.58s0,.06,0,.09l1.17.67a.15.15,0,0,0,.16,0l1-.58s0-.06,0-.09Zm-19.88,11,1-.58a0,0,0,0,0,0-.09l-1.17-.67a.18.18,0,0,0-.16,0l-1,.58s0,.07,0,.1l1.16.67A.18.18,0,0,0,363.21,280.88Zm17-9.31a.22.22,0,0,0-.16,0l-1,.58s0,.07,0,.09l1.16.67a.18.18,0,0,0,.16,0l1-.58c.05,0,0-.07,0-.1Zm7.65-4.41a.18.18,0,0,0-.16,0l-1,.58s0,.07,0,.1l1.16.67a.18.18,0,0,0,.16,0l1-.58s0-.06,0-.09Zm2.63-.18-2.83-1.63a.18.18,0,0,0-.16,0l-1,.58s0,.07,0,.09l2.82,1.63a.15.15,0,0,0,.16,0l1-.58S390.48,267,390.44,267Zm-15.77,7.76a.18.18,0,0,0-.16,0l-1.24.71s0,.07,0,.09l1.16.68a.22.22,0,0,0,.16,0l1.24-.72s0-.06,0-.09Zm3.71-2.14a.15.15,0,0,0-.16,0l-1.55.89s0,.07,0,.09l1.16.67a.18.18,0,0,0,.16,0l1.55-.9s0-.06,0-.09Zm-7.11,4.1a.22.22,0,0,0-.16,0l-8.27,4.77s0,.07,0,.1l1.16.67a.18.18,0,0,0,.16,0l8.27-4.77s0-.07,0-.1Zm-8.73,5a.22.22,0,0,0-.16,0l-1.24.72s0,.06,0,.09l1.16.67a.18.18,0,0,0,.16,0l1.24-.71s0-.07,0-.09Zm10.43-6a.18.18,0,0,0-.16,0l-1.24.71s0,.07,0,.1l1.16.67a.22.22,0,0,0,.16,0l1.24-.71s0-.07,0-.1Zm-12.13,7a.18.18,0,0,0-.16,0l-1.24.72s0,.06,0,.09l1.16.67a.15.15,0,0,0,.16,0l1.24-.71s0-.07,0-.09Zm15.53-9a.15.15,0,0,0-.16,0l-1.24.71s0,.07,0,.09l1.16.67a.18.18,0,0,0,.16,0l1.24-.72s0-.06,0-.09Zm5.25-3a.18.18,0,0,0-.16,0l-1,.58s0,.07,0,.1l1.16.67a.22.22,0,0,0,.16,0l1-.58a0,0,0,0,0,0-.09Zm3.22-2.34,1-.58s0-.07,0-.09l-1.16-.67a.18.18,0,0,0-.16,0l-1,.58s0,.07,0,.1l1.16.67A.18.18,0,0,0,384.84,268.39Zm-6.56,0,1-.58s0-.07,0-.09l-1.16-.67a.2.2,0,0,0-.17,0l-1,.58s0,.07,0,.09l1.16.68A.22.22,0,0,0,378.28,268.35ZM375,274.1l2.94-1.69s0-.07,0-.1l-1.16-.67a.18.18,0,0,0-.16,0l-2.94,1.69s0,.07,0,.1l1.16.67A.18.18,0,0,0,375,274.1Zm8.26-4.87a.18.18,0,0,0,.16,0l1-.58s0-.07,0-.09l-1.16-.67a.18.18,0,0,0-.16,0l-1,.58c-.05,0,0,.07,0,.09Zm-1.5-1,1-.58s0-.07,0-.09l-1.16-.67a.18.18,0,0,0-.16,0l-1,.58c-.05,0,0,.07,0,.1l1.16.67A.18.18,0,0,0,381.71,268.28ZM373.48,275l1-.58s0-.07,0-.09l-1.16-.67a.18.18,0,0,0-.16,0l-1,.58c-.05,0,0,.07,0,.09l1.16.67A.18.18,0,0,0,373.48,275Zm6.49-3.84a.15.15,0,0,0,.16,0l1-.58c.05,0,0-.06,0-.09l-1.16-.67a.15.15,0,0,0-.16,0l-1,.58s0,.06,0,.09Zm-13.83,8.08,1-.58s0-.07,0-.1l-1.16-.67a.22.22,0,0,0-.16,0l-1,.58c-.05,0,0,.07,0,.09l1.16.67A.18.18,0,0,0,366.14,279.19Zm1.47-.85,1-.58s0-.07,0-.09l-1.16-.67a.18.18,0,0,0-.16,0l-1,.58s0,.07,0,.09l1.16.68A.22.22,0,0,0,367.61,278.34ZM364.68,280l1-.58s0-.06,0-.09l-1.16-.67a.15.15,0,0,0-.16,0l-1,.58s0,.06,0,.09l1.17.67A.15.15,0,0,0,364.68,280Zm5.87-3.39,1-.58s0-.06,0-.09l-1.17-.67a.15.15,0,0,0-.16,0l-1,.58s0,.06,0,.09l1.16.67A.15.15,0,0,0,370.55,276.64Zm-1.47.85,1-.58c.05,0,0-.07,0-.09l-1.16-.67a.18.18,0,0,0-.16,0l-1,.58s0,.07,0,.1l1.16.67A.18.18,0,0,0,369.08,277.49ZM372,275.8l1-.58s0-.07,0-.1l-1.16-.67a.18.18,0,0,0-.16,0l-1,.58a0,0,0,0,0,0,.09l1.17.67A.18.18,0,0,0,372,275.8Zm6.71-12.54a.18.18,0,0,0,.16,0l1-.58s0-.07,0-.09l-.31-.18a.15.15,0,0,0-.16,0l-1,.58c-.05,0,0,.06,0,.09Zm-7.22,4.66a.15.15,0,0,0,.16,0l1-.58c.05,0,0-.06,0-.09l-1.16-.67a.15.15,0,0,0-.16,0l-1,.58s0,.06,0,.09Zm2.93-1.7a.18.18,0,0,0,.16,0l1-.58s0-.07,0-.09l-1.16-.68a.22.22,0,0,0-.16,0l-1,.58s0,.07,0,.09ZM369.72,269a.18.18,0,0,0,.16,0l1-.58s0-.07,0-.09l-1.17-.68a.22.22,0,0,0-.16,0l-1,.58s0,.07,0,.09Zm3.26-1.88a.18.18,0,0,0,.16,0l1-.58a.06.06,0,0,0,0-.1l-1.17-.67a.18.18,0,0,0-.16,0l-1,.58s0,.07,0,.09Zm-6.2,3.58a.15.15,0,0,0,.16,0l1-.58c.05,0,0-.06,0-.09l-1.16-.67a.15.15,0,0,0-.16,0l-1,.58s0,.06,0,.09Zm1.47-.85a.18.18,0,0,0,.16,0l1-.58s0-.07,0-.1l-1.16-.67a.18.18,0,0,0-.16,0l-1,.58s0,.07,0,.09ZM375.8,265a.18.18,0,0,0,.16,0l1-.58s0-.07,0-.1l-.3-.18a.22.22,0,0,0-.16,0l-1,.58s0,.07,0,.09Zm4.4-2.54a.15.15,0,0,0,.16,0l1-.58c.05,0,0-.06,0-.09l-.31-.18a.18.18,0,0,0-.16,0l-1,.58s0,.06,0,.09Zm2.44,1.41a.15.15,0,0,0,.16,0l1-.58c.05,0,0-.06,0-.09l-1.16-.67a.15.15,0,0,0-.16,0l-1,.58s0,.06,0,.09Zm3.67,3.72,1-.58c.05,0,0-.06,0-.09l-1.16-.67a.15.15,0,0,0-.16,0l-1,.58s0,.06,0,.09l1.16.67A.15.15,0,0,0,386.31,267.54Zm-9.05-3.44a.18.18,0,0,0,.16,0l1-.58s0-.07,0-.09l-.31-.18a.18.18,0,0,0-.16,0l-1,.58a.06.06,0,0,0,0,.1Zm-11.95,7.4a.18.18,0,0,0,.16,0l1-.58s0-.07,0-.09l-1.16-.67a.18.18,0,0,0-.16,0l-1,.58s0,.07,0,.1Z" style="fill:#407BFF"></path></g><g id="freepik--Computer--inject-23"><path d="M364.6,262.4l-12,6.93-.06,0L348,266.68a2.46,2.46,0,0,1-1.11-2.42l1.7-8.8,10-8.09,2,1.16-1.69,8.8a2.45,2.45,0,0,0,1.1,2.42Z" style="fill:#455a64"></path><path d="M352.6,269.33v2.31L346.33,268a3.69,3.69,0,0,1-1.67-3.65l1.93-10.06,2,1.15-1.7,8.8a2.46,2.46,0,0,0,1.11,2.42l4.53,2.62Z" style="fill:#263238"></path><polygon points="364.6 262.4 352.6 269.33 352.6 271.64 364.6 264.71 364.6 262.4" style="fill:#37474f"></polygon><path d="M375.62,204a2.3,2.3,0,0,1,1,1.81v36.84a2.36,2.36,0,0,1-1.07,1.85L329.64,271a2,2,0,0,1-3.07-1.78V232.42a2.36,2.36,0,0,1,1.07-1.85l45.91-26.51A2.29,2.29,0,0,1,375.62,204Z" style="fill:#455a64"></path><path d="M329.64,271a2,2,0,0,1-3.07-1.78V232.42a2.19,2.19,0,0,1,.31-1L362.61,252Z" style="fill:#263238"></path><path d="M376.62,242.67V205.83c0-.68-.48-1-1.07-.61l-45.91,26.51a2.35,2.35,0,0,0-1.07,1.84v36.84c0,.68.48,1,1.07.62l45.91-26.51A2.36,2.36,0,0,0,376.62,242.67Z" style="fill:#37474f"></path><path d="M374,207.27l-43.58,25.16a1.86,1.86,0,0,0-.86,1.47v32.71c0,.54.38.77.86.49L374,242a1.88,1.88,0,0,0,.85-1.48v-32.7C374.86,207.22,374.48,207,374,207.27Z" style="fill:#fff"></path></g></g><g id="freepik--Box--inject-23"><path d="M313.08,326.59l-25.85-14.92a2.88,2.88,0,0,1-1.3-2.25V293.66a2.86,2.86,0,0,1,1.3-2.25l17.71-10.22a2.84,2.84,0,0,1,2.6,0l25.83,14.91a2.86,2.86,0,0,1,1.3,2.25v15.76a2.86,2.86,0,0,1-1.3,2.25l-17.7,10.22A2.87,2.87,0,0,1,313.08,326.59Z" style="fill:#263238"></path><path d="M315.67,307.82l17.7-10.22a.79.79,0,0,0,0-1.5l-25.83-14.91a2.84,2.84,0,0,0-2.6,0l-17.71,10.22a.79.79,0,0,0,0,1.5l25.84,14.92A2.87,2.87,0,0,0,315.67,307.82Z" style="fill:#455a64"></path><path d="M314.38,308.14V326.9a2.74,2.74,0,0,1-1.3-.31l-25.84-14.91a2.87,2.87,0,0,1-1.3-2.25V293.66a2.91,2.91,0,0,1,1-2c-.36.41-.26.91.32,1.25l25.85,14.92A2.71,2.71,0,0,0,314.38,308.14Z" style="fill:#37474f"></path><path d="M293.7,292.36a1.88,1.88,0,0,1,1.71,0L314,303.09c.47.28.49.73,0,1a1.85,1.85,0,0,1-1.7,0l-18.58-10.72C293.25,293.08,293.24,292.64,293.7,292.36Z" style="fill:#37474f"></path><path d="M293.7,292.36a1.88,1.88,0,0,1,1.71,0l11.31,6.53-1.68,1-11.31-6.53C293.25,293.08,293.24,292.64,293.7,292.36Z" style="fill:#407BFF"></path><path d="M296.92,290.5a1.88,1.88,0,0,1,1.71,0l18.58,10.72c.48.28.49.73,0,1a1.85,1.85,0,0,1-1.7,0L297,291.5C296.47,291.22,296.46,290.78,296.92,290.5Z" style="fill:#37474f"></path><path d="M296.92,290.5a1.88,1.88,0,0,1,1.71,0l1.52.87-1.69,1L297,291.5C296.47,291.22,296.46,290.78,296.92,290.5Z" style="fill:#407BFF"></path><path d="M300.15,288.64a1.85,1.85,0,0,1,1.7,0l18.58,10.72c.48.28.49.73,0,1a1.88,1.88,0,0,1-1.71,0l-18.58-10.72C299.69,289.36,299.68,288.92,300.15,288.64Z" style="fill:#37474f"></path><path d="M300.15,288.64a1.85,1.85,0,0,1,1.7,0l6.57,3.79-1.68,1-6.57-3.79C299.69,289.36,299.68,288.92,300.15,288.64Z" style="fill:#407BFF"></path><path d="M303.37,286.78a1.85,1.85,0,0,1,1.7,0l18.58,10.72c.48.28.49.72,0,1a1.88,1.88,0,0,1-1.71,0l-18.58-10.72C302.92,287.5,302.9,287.06,303.37,286.78Z" style="fill:#37474f"></path><path d="M303.37,286.78a1.85,1.85,0,0,1,1.7,0l13.31,7.68-1.68,1-13.31-7.68C302.92,287.5,302.9,287.06,303.37,286.78Z" style="fill:#407BFF"></path><path d="M306.59,284.92a1.88,1.88,0,0,1,1.71,0l18.58,10.72c.47.28.48.72,0,1a1.88,1.88,0,0,1-1.71,0l-18.57-10.72C306.14,285.64,306.13,285.19,306.59,284.92Z" style="fill:#37474f"></path><path d="M306.59,284.92a1.88,1.88,0,0,1,1.71,0L325,294.58l-1.68,1-16.73-9.65C306.14,285.64,306.13,285.19,306.59,284.92Z" style="fill:#407BFF"></path><path d="M316.4,321.46v-3.2a2.59,2.59,0,0,1,1-2.08c.56-.33,1,.08,1,.91v3.19a2.6,2.6,0,0,1-1,2.09C316.86,322.69,316.4,322.28,316.4,321.46Z" style="fill:#37474f"></path><path d="M317.47,316.66a1.45,1.45,0,0,0-.68,1.16c0,.43.3.6.68.39a1.49,1.49,0,0,0,.67-1.17C318.14,316.62,317.84,316.44,317.47,316.66Z" style="fill:#407BFF"></path><path d="M319.61,319.62v-3.2a2.58,2.58,0,0,1,1-2.08c.56-.33,1,.08,1,.91v3.19a2.61,2.61,0,0,1-1,2.09C320.06,320.85,319.61,320.44,319.61,319.62Z" style="fill:#37474f"></path><path d="M320.62,318.5a1.47,1.47,0,0,0-.67,1.16c0,.43.3.6.67.39a1.51,1.51,0,0,0,.68-1.17C321.3,318.45,321,318.28,320.62,318.5Z" style="fill:#407BFF"></path></g></g></g><g id="freepik--Character--inject-23"><g id="freepik--Legs--inject-23"><path d="M379.47,359.07c.38.51.45,1.67.84,3.25a7.37,7.37,0,0,1,.26,3.57,7.13,7.13,0,0,1-4,3.15c-2.07.64-4.63.1-7.11-1.38s-4.34-3.27-7.86-4.28-5.29-1.82-7-3.16c-2-1.56-3.22-3.91.52-4.92s10.53.56,17.92.88Z" style="fill:#263238"></path><path d="M379.47,354.45V360s-.76,1.84-3.92,2a4.77,4.77,0,0,1-4.19-2v-5.49Z" style="fill:#ffa8a7"></path><path d="M368.89,318.2c0,6.89,1.94,38.68,1.94,38.68s2.82,3.56,8.94,0l2.08-35.27Z" style="fill:#37474f"></path><path d="M362.84,369.9c.39.51.45,1.68.84,3.25a4.64,4.64,0,0,1-3.77,6.72c-2.08.65-4.64.11-7.11-1.37s-4.35-3.28-7.87-4.28-5.29-1.82-7-3.16c-2-1.57-3.21-3.92.52-4.92s10.53.55,17.92.87Z" style="fill:#263238"></path><path d="M362.84,365.28v5.54s-.76,1.84-3.91,2a4.78,4.78,0,0,1-4.2-2v-5.49Z" style="fill:#ffa8a7"></path><path d="M352.26,329c0,6.9,1.94,38.68,1.94,38.68s2.82,3.57,8.94,0l2.08-35.27Z" style="fill:#37474f"></path></g><g id="freepik--Chair--inject-23"><path d="M373.69,394.44a4.56,4.56,0,0,0,.08.78,1.84,1.84,0,0,0,.7,1.08h0a2,2,0,0,0,2.14-.16,6.53,6.53,0,0,0,3-5.12,2.1,2.1,0,0,0-.84-1.87h0l-.14-.08h0a1.82,1.82,0,0,0-1.25-.05,3.53,3.53,0,0,0-.73.32A6.5,6.5,0,0,0,373.69,394.44Z" style="fill:#455a64"></path><path d="M374.5,388.1a2.63,2.63,0,0,1,1.31-.4,1.54,1.54,0,0,1,.83.23l.08,0,1.9,1.1a1.82,1.82,0,0,0-1.25-.05,3.53,3.53,0,0,0-.73.32,6.5,6.5,0,0,0-2.95,5.1,4.56,4.56,0,0,0,.08.78,1.84,1.84,0,0,0,.7,1.08l-2-1.13,0,0-.17-.1-.05,0a2.19,2.19,0,0,1-.72-1.82A6.5,6.5,0,0,1,374.5,388.1Z" style="fill:#263238"></path><path d="M405.63,377.27a3.64,3.64,0,0,0,.08.77,1.81,1.81,0,0,0,.7,1.08l0,0a2,2,0,0,0,2.14-.17,6.52,6.52,0,0,0,3-5.11,2.08,2.08,0,0,0-.84-1.87h0l-.14-.08h0a1.77,1.77,0,0,0-1.25,0,3,3,0,0,0-.73.31A6.52,6.52,0,0,0,405.63,377.27Z" style="fill:#455a64"></path><path d="M406.44,370.92a2.73,2.73,0,0,1,1.31-.4,1.55,1.55,0,0,1,.83.24l.08,0,1.9,1.1a1.77,1.77,0,0,0-1.25,0,3,3,0,0,0-.73.31,6.52,6.52,0,0,0-2.95,5.11,3.64,3.64,0,0,0,.08.77,1.81,1.81,0,0,0,.7,1.08l-2-1.13h0l-.16-.1-.05,0a2.16,2.16,0,0,1-.73-1.81A6.53,6.53,0,0,1,406.44,370.92Z" style="fill:#263238"></path><path d="M399.93,401.15a3.64,3.64,0,0,1-.08.77,1.76,1.76,0,0,1-.7,1.08l0,0a2,2,0,0,1-2.15-.17,6.5,6.5,0,0,1-3-5.11,2.07,2.07,0,0,1,.83-1.87h0l.14-.08h0a1.79,1.79,0,0,1,1.26,0,3.13,3.13,0,0,1,.72.31A6.52,6.52,0,0,1,399.93,401.15Z" style="fill:#455a64"></path><path d="M399.13,394.8a2.8,2.8,0,0,0-1.32-.4,1.55,1.55,0,0,0-.83.24l-.07,0-1.91,1.1a1.79,1.79,0,0,1,1.26,0,3.13,3.13,0,0,1,.72.31,6.52,6.52,0,0,1,2.95,5.11,3.64,3.64,0,0,1-.08.77,1.76,1.76,0,0,1-.7,1.08l2-1.13h0l.17-.1.05,0a2.19,2.19,0,0,0,.72-1.81A6.52,6.52,0,0,0,399.13,394.8Z" style="fill:#263238"></path><path d="M420.67,391a3.71,3.71,0,0,1-.09.78,1.75,1.75,0,0,1-.7,1.08l0,0a2.08,2.08,0,0,1-2.15-.17,6.52,6.52,0,0,1-2.95-5.12,2.12,2.12,0,0,1,.83-1.87h0l.15-.08h0a1.85,1.85,0,0,1,1.26-.05,3.71,3.71,0,0,1,.72.32A6.51,6.51,0,0,1,420.67,391Z" style="fill:#455a64"></path><path d="M419.86,384.65a2.69,2.69,0,0,0-1.32-.4,1.57,1.57,0,0,0-.83.23l-.07,0-1.91,1.1a1.85,1.85,0,0,1,1.26-.05,3.71,3.71,0,0,1,.72.32,6.51,6.51,0,0,1,3,5.1,3.71,3.71,0,0,1-.09.78,1.75,1.75,0,0,1-.7,1.08l2-1.13,0,0,.17-.1,0,0a2.17,2.17,0,0,0,.72-1.81A6.52,6.52,0,0,0,419.86,384.65Z" style="fill:#263238"></path><path d="M380.59,378.54a3.64,3.64,0,0,1-.08.77,1.81,1.81,0,0,1-.7,1.08l0,0a2,2,0,0,1-2.14-.17,6.5,6.5,0,0,1-2.95-5.11,2.07,2.07,0,0,1,.83-1.87h0l.14-.08h0a1.77,1.77,0,0,1,1.25-.05,3,3,0,0,1,.73.31A6.52,6.52,0,0,1,380.59,378.54Z" style="fill:#455a64"></path><path d="M379.78,372.19a2.73,2.73,0,0,0-1.31-.4,1.55,1.55,0,0,0-.83.24l-.08,0-1.9,1.1a1.77,1.77,0,0,1,1.25-.05,3,3,0,0,1,.73.31,6.52,6.52,0,0,1,2.95,5.11,3.64,3.64,0,0,1-.08.77,1.81,1.81,0,0,1-.7,1.08l1.95-1.13h0l.16-.1a.1.1,0,0,0,.05,0,2.16,2.16,0,0,0,.73-1.81A6.53,6.53,0,0,0,379.78,372.19Z" style="fill:#263238"></path><polygon points="398.21 372.3 408.75 369.28 408.75 371.53 398.21 377.61 398.21 372.3" style="fill:#f5f5f5"></polygon><polygon points="398.21 372.3 397.18 371.66 407.75 368.77 408.75 369.28 398.21 372.3" style="fill:#fafafa"></polygon><polygon points="393.65 379.02 378.71 373.42 378.71 371.14 393.65 372.47 393.65 379.02" style="fill:#f5f5f5"></polygon><polygon points="378.71 371.14 379.81 370.85 394.54 371.8 393.65 372.47 378.71 371.14" style="fill:#fafafa"></polygon><path d="M393.25,378.3c0,1.69,5.2,1.69,5.2,0V363.52h-5.2Z" style="fill:#fafafa"></path><path d="M397.15,374.45,400,393h-2l-2.67-18.56A3.22,3.22,0,0,0,397.15,374.45Z" style="fill:#fafafa"></path><polygon points="395.38 374.45 395.38 379.55 398.05 396.15 398.05 393.01 395.38 374.45" style="fill:#f5f5f5"></polygon><rect x="398.05" y="393.01" width="1.95" height="3.14" style="fill:#ebebeb"></rect><polygon points="394.49 379.4 375.22 389.5 375.22 386.39 394.49 374.47 394.49 379.4" style="fill:#f5f5f5"></polygon><path d="M394.49,374.47a2.27,2.27,0,0,1-1.24-.56L374,385.57l1.2.82Z" style="fill:#fafafa"></path><polygon points="375.22 389.5 375.22 386.39 374.02 385.57 374.02 388.59 375.22 389.5" style="fill:#ebebeb"></polygon><polygon points="418.79 385.93 398.2 378.88 398.2 374.26 418.79 382.82 418.79 385.93" style="fill:#f5f5f5"></polygon><path d="M398.2,374.26c.17-.05.24-.35.25-.8l20.95,9.11-.61.25Z" style="fill:#fafafa"></path><polygon points="419.39 382.57 419.39 385.58 418.79 385.93 418.79 382.82 419.39 382.57" style="fill:#ebebeb"></polygon><path d="M400.25,337.77h-8.8v30.48c0,2.53,8.8,2.53,8.8,0Z" style="fill:#f0f0f0"></path><path d="M362,340.51h0a4.39,4.39,0,0,1,2.2-3.81L395,318.92a4.38,4.38,0,0,1,4.4,0l30.79,17.78a4.4,4.4,0,0,1,2.2,3.81h0l-35.19,20.32Z" style="fill:#407BFF"></path><path d="M362,340.51v2.54l33,19.06a4.36,4.36,0,0,0,2.17.58,4.32,4.32,0,0,0,2.18-.58l33-19.06v-2.54l-33,19.06a4.33,4.33,0,0,1-2.18.59,4.37,4.37,0,0,1-2.17-.59Z" style="fill:#fafafa"></path><path d="M362,340.51v2.54l33,19.06a4.36,4.36,0,0,0,2.17.58v-2.53a4.37,4.37,0,0,1-2.17-.59Z" style="fill:#f5f5f5"></path><path d="M362,340.51a4.36,4.36,0,0,1,.47-2l33.27,19.2a2.87,2.87,0,0,0,2.89,0l33.28-19.2a4.39,4.39,0,0,1,.47,2l-35.19,20.32L362,340.51Z" style="opacity:0.1"></path></g><g id="freepik--character--inject-23"><path d="M421.69,326.65s-28.57-8.63-33.53-10-14.5-3.65-17.28-2.41-4.2,2.7-4.45,6.71c-.05.76,0,4.43,0,4.43s13.81,4.28,25.12,4.28S421.69,326.65,421.69,326.65Z" style="fill:#263238"></path><polygon points="397.27 278.1 399.17 288.34 409.67 289.55 408.16 275.41 397.27 278.1" style="fill:#ffa8a7"></polygon><path d="M387.47,269.92s-1.38,4.22-1,4.48a7.46,7.46,0,0,0,2.3.14Z" style="fill:#f28f8f"></path><path d="M390.18,256.38c-1.81,1.9-3.53,5.09-2.77,13.16.83,8.84,3.47,11.2,4.58,11.72,1.67.77,7.33-.58,9.17-1.94,2.31-1.7,6.64-5.93,7.78-11.14,1.33-6.13-.38-13.09-4.86-14.5C397.78,251.7,391.71,254.77,390.18,256.38Z" style="fill:#ffa8a7"></path><path d="M386.05,260.73c1.07,2,3.1,7.06,8.85,8.49,0,0,.31-3.43,3.16-3.47s3.82,3.47,2.4,5.92-3.19,1.89-3.19,1.89.29,4.82,3.77,6.54a9,9,0,0,0,8-.53c1.71-1.09,3.7-5.84,4.72-9.65,2.17-8.07,1.78-14.24-3.35-15.49-1.08-3.39-2.81-4.47-6-4.69-6.94-.45-11.43,4.69-17.2,4.69C384.16,254.43,384.82,258.41,386.05,260.73Z" style="fill:#263238"></path><path d="M410.29,255l3.47-1.49a1.89,1.89,0,1,0-3.47,1.49Z" style="fill:#263238"></path><path d="M421.62,323.21c0,5.49.51,11.2-1.77,15.22s-12.66,12.3-24.33,10.33c-7.63-1.28-32.27-10.67-32.27-10.67s-10.91-4-11-6.91c0-.7-.07-1.43,0-2.19.23-3.82,1.78-7.93,9.76-7.72,8.72.23,34.59,4.47,34.59,4.47Z" style="fill:#37474f"></path><path d="M419.59,287.74c-.94-2.87-4.58-6-8.22-5.31-6.68,1.24-14,3.41-15.94,4h0s.87,14.73-6.69,19.19l-1,18.76a16.09,16.09,0,0,0,4.76,5.57c3.12,2,7.46,5,15.31,4.31a19.35,19.35,0,0,0,13.87-7.59s-.09-17.73-.39-25.66C421.05,294.25,420.24,289.71,419.59,287.74Z" style="fill:#455a64"></path><path d="M388.55,309.23a25,25,0,0,0,5.34-8.85s0,7-5.42,10.71Z" style="fill:#37474f"></path><path d="M395.43,286.41c-4.12,1.24-6.64,1.46-11.19,8.47s-14.55,20.93-15.54,22.6c-1.37,2.33-2,5.09-.78,7.23s4.34,1.12,8.86-2.85,13-14.69,13-14.69A74.79,74.79,0,0,0,395.43,286.41Z" style="fill:#ffa8a7"></path><path d="M395.43,286.41a31.4,31.4,0,0,0-6,1.89A9.47,9.47,0,0,0,385,292c-3.19,5.3-7.75,12.84-7.75,12.84s-.78,6.57,7.2,8.86l4.24-4.58a23.64,23.64,0,0,0,4.23-6.29C394.68,298.88,396.73,292.61,395.43,286.41Z" style="fill:#455a64"></path><path d="M369.31,325.69c-3.82-.46-12.37-12.18-15.22-15.91s-5.24-5.94-7.81-7.35a10.27,10.27,0,0,1-5.5-8.12c-.65-4.18,3.24-6.85,6.43-2.65,2,2.67,4.06,4.36,4.17,3.91s-.63-2.3-.61-4.24c0-2.32,1.65-.79,2.14,0a29.75,29.75,0,0,1,1.72,3.85c.81,2.08.48,4.19,1.47,5.62S370.39,315,370.39,315Z" style="fill:#ffa8a7"></path></g><polygon points="434.05 289.69 434.05 329.03 402.83 347.12 402.83 307.81 434.05 289.69" style="fill:#407BFF"></polygon><polygon points="434.05 289.69 434.05 329.03 402.83 347.12 402.83 307.81 434.05 289.69" style="opacity:0.1"></polygon><path d="M400,345.48l2.84,1.64V311.07c0-1.71.51-2.56,1.2-2.94,2.38-1.46,5.52,1.65,5.52,1.65v-2.62l30.17-17.46c-2.84-1.64-4.7-2.72-10.43.53s-22.53,13-25.19,14.61c-2.13,1.31-4.12,2.84-4.12,6.41Z" style="fill:#407BFF"></path><path d="M404.11,304.84c2.62-1.7,19.46-11.36,25.19-14.61s7.59-2.17,10.43-.53l-30.17,17.46A7.54,7.54,0,0,0,404.11,304.84Z" style="fill:#fff;opacity:0.4"></path><polygon points="409.55 309.78 439.73 292.25 439.73 289.69 409.56 307.16 409.55 309.78" style="fill:#407BFF"></polygon><polygon points="409.55 309.78 439.73 292.25 439.73 289.69 409.56 307.16 409.55 309.78" style="opacity:0.2"></polygon><path d="M410,359.63a2.65,2.65,0,0,0,1.36-.37,2.68,2.68,0,0,0,1.37-2.36V336.27a1.4,1.4,0,0,0-2.8,0v20.52l-2.22-1.28a1.39,1.39,0,0,0-1.91.51,1.41,1.41,0,0,0,.51,1.91l2.32,1.33A2.71,2.71,0,0,0,410,359.63Z" style="fill:#e6e6e6"></path><path d="M427.08,349.69a2.75,2.75,0,0,0,1.36-.37,2.71,2.71,0,0,0,1.37-2.37V326.32a1.4,1.4,0,0,0-2.8,0v20.52l-2.22-1.28a1.39,1.39,0,0,0-1.91.51,1.41,1.41,0,0,0,.51,1.91l2.32,1.34A2.82,2.82,0,0,0,427.08,349.69Z" style="fill:#e6e6e6"></path></g></svg>