<?xml version="1.0" encoding="UTF-8"?><svg id="Layer_1" xmlns="http://www.w3.org/2000/svg" viewBox="0 0 264 300"><defs><style>.cls-1{fill:#053947;}.cls-2,.cls-3{fill:#fff;}.cls-4{fill:#8acbce;}.cls-3{stroke:#053947;stroke-miterlimit:10;stroke-width:11.36px;}</style></defs><polygon class="cls-3" points="7.47 78.21 132.59 7.77 255.86 78.21 255.86 220.94 131.88 292.3 7.47 221.38 7.47 78.21"/><polygon class="cls-4" points="23.85 194.28 238.83 194.28 238.83 211.4 132.54 272.17 23.85 211.13 23.85 194.28"/><polyline class="cls-1" points="214.21 108.08 185.62 58.65 133.76 108.08 126.47 108.08 157.46 78.1 154.3 71.85 117.95 108.08 113.01 108.08 152.69 69.1 150.32 64.19 104.36 108.08 96.7 108.08 121.96 83.38 118.71 76.76 88.15 108.08 83.4 108.08 117.1 74 114.73 69.1 74.73 108.08 67.86 108.08 89.83 85.47 86.87 79.38 59.31 108.08 54.51 108.08 85.26 76.62 82.89 71.72 45.84 108.08"/><rect class="cls-1" x="23.85" y="107.28" width="214.99" height="76.35"/><g><path class="cls-2" d="M65.76,162.5l5.49-6.73c3.6,3.3,8.2,5.25,13.45,5.25s7.91-2.01,7.91-5.31c0-3.6-3.66-4.48-10.27-5.96-7.67-1.77-14.87-4.66-14.87-13.57,0-7.79,6.02-13.87,17.35-13.87,7.55,0,12.92,2.3,17.17,5.78l-4.84,6.9c-3.72-3.07-7.91-4.78-12.45-4.78s-6.9,2.24-6.9,5.02c0,3.48,3.36,4.25,9.91,5.72,8.02,1.83,15.22,4.54,15.22,13.75,0,8.32-6.49,14.22-18.41,14.22-8.44,0-14.22-2.42-18.76-6.43Z"/><path class="cls-2" d="M104.58,162.5l5.49-6.73c3.6,3.3,8.2,5.25,13.45,5.25s7.91-2.01,7.91-5.31c0-3.6-3.66-4.48-10.27-5.96-7.67-1.77-14.87-4.66-14.87-13.57,0-7.79,6.02-13.87,17.35-13.87,7.55,0,12.92,2.3,17.17,5.78l-4.84,6.9c-3.72-3.07-7.91-4.78-12.45-4.78s-6.9,2.24-6.9,5.02c0,3.48,3.36,4.25,9.91,5.72,8.02,1.83,15.22,4.54,15.22,13.75,0,8.32-6.49,14.22-18.41,14.22-8.44,0-14.22-2.42-18.76-6.43Z"/><path class="cls-2" d="M194.27,122.96v45.32h-10.27v-29.92h-.12l-9.74,29.92h-8.73l-9.74-29.8h-.12v29.8h-10.03v-45.32h13.98l10.44,32.63h.12l10.38-32.63h13.81Z"/></g><g><g><path class="cls-1" d="M86.5,225.72l3.15-3.86c2.07,1.9,4.71,3.02,7.73,3.02s4.54-1.15,4.54-3.05c0-2.07-2.1-2.58-5.9-3.42-4.41-1.02-8.54-2.68-8.54-7.79,0-4.47,3.46-7.96,9.96-7.96,4.34,0,7.42,1.32,9.86,3.32l-2.78,3.96c-2.13-1.76-4.54-2.75-7.15-2.75s-3.96,1.29-3.96,2.88c0,2,1.93,2.44,5.69,3.29,4.61,1.05,8.74,2.61,8.74,7.9,0,4.78-3.73,8.17-10.57,8.17-4.85,0-8.17-1.39-10.78-3.69Z"/><path class="cls-1" d="M126.04,223.35h-10.13l-1.93,5.69h-6l9.49-26.03h7.18l9.52,26.03h-6.2l-1.93-5.69Zm-1.52-4.51l-3.49-10.4h-.07l-3.52,10.4h7.08Z"/><path class="cls-1" d="M135.83,229.04v-26.03h18.1v4.61h-12.13v6.37h10.51v4.58h-10.51v10.47h-5.96Z"/><path class="cls-1" d="M171.68,226.19c-1.63,1.93-3.93,3.22-7.69,3.22-6.44,0-9.69-3.83-9.69-9.42s3.22-9.52,9.22-9.52,8.81,3.9,8.81,8.95c0,.75-.03,1.56-.14,2.14h-12.27c.31,2.34,1.46,3.83,4.24,3.83,1.56,0,2.98-.61,4.1-2.1l3.42,2.92Zm-4.81-8c-.2-2.27-1.08-3.69-3.39-3.69s-3.32,1.42-3.56,3.69h6.95Z"/></g><path class="cls-1" d="M138,239.83c-1.32-.75-2.75-1.19-4.44-1.19-4.44,0-6.27,2.85-6.47,7.56h.07c1.39-1.56,3.66-2.47,6.17-2.47,4.88,0,7.93,3.39,7.93,7.93,0,4.81-3.42,8.34-9.59,8.34-7.93,0-10.17-5.9-10.17-11.96,0-6.81,2.75-13.66,11.96-13.66,2.95,0,4.91,.68,6.41,1.46l-1.86,4Zm-2.41,11.96c0-2.27-1.36-4.03-3.93-4.03-2.27,0-4.07,1.36-4.07,3.76,0,1.93,1.19,4.24,4.1,4.24,2.44,0,3.9-1.66,3.9-3.96Z"/><path class="cls-1" d="M179.73,209.62c0,2.19-1.74,3.95-3.99,3.95s-3.99-1.76-3.99-3.95,1.74-3.95,3.99-3.95,3.99,1.76,3.99,3.95Zm-.84,0c0-1.74-1.35-3.17-3.15-3.17s-3.15,1.43-3.15,3.17,1.35,3.17,3.15,3.17,3.15-1.43,3.15-3.17Zm-2.76-1.99c.74,0,1.33,.43,1.33,1.19,0,.59-.33,1-.8,1.17l.94,1.62h-1.02l-.86-1.54h-.59v1.54h-.88v-3.97h1.88Zm-1,1.8h.8c.37,0,.66-.18,.66-.55s-.27-.55-.66-.55h-.8v1.11Z"/></g></svg>